%TF.GenerationSoftware,KiCad,Pcbnew,8.0.3*%
%TF.CreationDate,2025-05-21T19:02:48+05:45*%
%TF.ProjectId,STM32_pcb_design,53544d33-325f-4706-9362-5f6465736967,rev?*%
%TF.SameCoordinates,Original*%
%TF.FileFunction,Copper,L2,Bot*%
%TF.FilePolarity,Positive*%
%FSLAX46Y46*%
G04 Gerber Fmt 4.6, Leading zero omitted, Abs format (unit mm)*
G04 Created by KiCad (PCBNEW 8.0.3) date 2025-05-21 19:02:48*
%MOMM*%
%LPD*%
G01*
G04 APERTURE LIST*
%TA.AperFunction,ComponentPad*%
%ADD10R,1.700000X1.700000*%
%TD*%
%TA.AperFunction,ComponentPad*%
%ADD11O,1.700000X1.700000*%
%TD*%
%TA.AperFunction,ComponentPad*%
%ADD12O,1.800000X1.150000*%
%TD*%
%TA.AperFunction,ComponentPad*%
%ADD13O,2.000000X1.450000*%
%TD*%
%TA.AperFunction,ViaPad*%
%ADD14C,0.700000*%
%TD*%
%TA.AperFunction,Conductor*%
%ADD15C,0.500000*%
%TD*%
G04 APERTURE END LIST*
D10*
%TO.P,J4,1,Pin_1*%
%TO.N,+3.3V*%
X94375000Y-107000000D03*
D11*
%TO.P,J4,2,Pin_2*%
%TO.N,/I2C2_SCL*%
X96915000Y-107000000D03*
%TO.P,J4,3,Pin_3*%
%TO.N,/I2C2_SDA*%
X99455000Y-107000000D03*
%TO.P,J4,4,Pin_4*%
%TO.N,GND*%
X101995000Y-107000000D03*
%TD*%
D10*
%TO.P,J2,1,Pin_1*%
%TO.N,+3.3V*%
X97800000Y-80750000D03*
D11*
%TO.P,J2,2,Pin_2*%
%TO.N,/USART_TX*%
X95260000Y-80750000D03*
%TO.P,J2,3,Pin_3*%
%TO.N,/USART_RX*%
X92720000Y-80750000D03*
%TO.P,J2,4,Pin_4*%
%TO.N,GND*%
X90180000Y-80750000D03*
%TD*%
D10*
%TO.P,J3,1,Pin_1*%
%TO.N,+3.3V*%
X111800000Y-80750000D03*
D11*
%TO.P,J3,2,Pin_2*%
%TO.N,/SWDIO*%
X109260000Y-80750000D03*
%TO.P,J3,3,Pin_3*%
%TO.N,/SWCLK*%
X106720000Y-80750000D03*
%TO.P,J3,4,Pin_4*%
%TO.N,GND*%
X104180000Y-80750000D03*
%TD*%
D12*
%TO.P,J1,6,Shield*%
%TO.N,unconnected-(J1-Shield-Pad6)_2*%
X119475000Y-96025000D03*
D13*
%TO.N,unconnected-(J1-Shield-Pad6)_0*%
X115675000Y-95875000D03*
%TO.N,unconnected-(J1-Shield-Pad6)*%
X115675000Y-88425000D03*
D12*
%TO.N,unconnected-(J1-Shield-Pad6)_1*%
X119475000Y-88275000D03*
%TD*%
D14*
%TO.N,GND*%
X97925000Y-99325000D03*
%TO.N,+3.3V*%
X117625000Y-97450000D03*
X117900000Y-99925000D03*
%TO.N,GND*%
X87775000Y-94525000D03*
X89500000Y-89850000D03*
%TO.N,+3.3V*%
X96712500Y-104787500D03*
X95275000Y-104825000D03*
X98225226Y-102199774D03*
X100125000Y-102200000D03*
%TO.N,GND*%
X114150000Y-99750000D03*
X110375000Y-99225000D03*
X111300000Y-99225000D03*
X110400000Y-95950000D03*
X110400000Y-95025000D03*
X114200000Y-90800000D03*
X91150000Y-90225000D03*
X85050000Y-85450000D03*
X92016359Y-92700495D03*
X92750000Y-88950000D03*
X105725000Y-91550000D03*
X96250000Y-94600000D03*
X96500000Y-90650000D03*
X101000000Y-96350000D03*
X91775000Y-100275000D03*
X91775000Y-97225000D03*
X118075000Y-98775000D03*
%TD*%
D15*
%TO.N,+3.3V*%
X98225452Y-102200000D02*
X100125000Y-102200000D01*
X98225226Y-102199774D02*
X98225452Y-102200000D01*
X117275000Y-97800000D02*
X117625000Y-97450000D01*
X117275000Y-99300000D02*
X117275000Y-97800000D01*
X117900000Y-99925000D02*
X117275000Y-99300000D01*
X95312500Y-104787500D02*
X96712500Y-104787500D01*
X95275000Y-104825000D02*
X95312500Y-104787500D01*
%TD*%
%TA.AperFunction,Conductor*%
%TO.N,GND*%
G36*
X118500855Y-78500011D02*
G01*
X118662269Y-78502274D01*
X118674390Y-78503041D01*
X118978553Y-78537312D01*
X118995992Y-78539277D01*
X119009700Y-78541606D01*
X119324366Y-78613426D01*
X119337725Y-78617273D01*
X119642392Y-78723881D01*
X119655228Y-78729199D01*
X119946025Y-78869239D01*
X119958195Y-78875965D01*
X120231486Y-79047685D01*
X120242827Y-79055732D01*
X120495173Y-79256971D01*
X120505541Y-79266237D01*
X120733762Y-79494458D01*
X120743028Y-79504826D01*
X120944267Y-79757172D01*
X120952314Y-79768513D01*
X121124034Y-80041804D01*
X121130760Y-80053974D01*
X121270798Y-80344766D01*
X121276120Y-80357613D01*
X121382724Y-80662270D01*
X121386573Y-80675633D01*
X121458393Y-80990299D01*
X121460722Y-81004007D01*
X121496957Y-81325597D01*
X121497725Y-81337743D01*
X121499988Y-81499144D01*
X121500000Y-81500882D01*
X121500000Y-106499117D01*
X121499988Y-106500855D01*
X121497725Y-106662256D01*
X121496957Y-106674402D01*
X121460722Y-106995992D01*
X121458393Y-107009700D01*
X121386573Y-107324366D01*
X121382724Y-107337729D01*
X121276120Y-107642386D01*
X121270798Y-107655233D01*
X121130760Y-107946025D01*
X121124034Y-107958195D01*
X120952314Y-108231486D01*
X120944267Y-108242827D01*
X120743028Y-108495173D01*
X120733762Y-108505541D01*
X120505541Y-108733762D01*
X120495173Y-108743028D01*
X120242827Y-108944267D01*
X120231486Y-108952314D01*
X119958195Y-109124034D01*
X119946025Y-109130760D01*
X119655233Y-109270798D01*
X119642386Y-109276120D01*
X119337729Y-109382724D01*
X119324366Y-109386573D01*
X119009700Y-109458393D01*
X118995992Y-109460722D01*
X118674402Y-109496957D01*
X118662256Y-109497725D01*
X118500856Y-109499988D01*
X118499118Y-109500000D01*
X83500882Y-109500000D01*
X83499144Y-109499988D01*
X83337743Y-109497725D01*
X83325597Y-109496957D01*
X83004007Y-109460722D01*
X82990299Y-109458393D01*
X82675633Y-109386573D01*
X82662270Y-109382724D01*
X82357613Y-109276120D01*
X82344766Y-109270798D01*
X82053974Y-109130760D01*
X82041804Y-109124034D01*
X81768513Y-108952314D01*
X81757172Y-108944267D01*
X81504826Y-108743028D01*
X81494458Y-108733762D01*
X81266237Y-108505541D01*
X81256971Y-108495173D01*
X81125755Y-108330633D01*
X81055730Y-108242824D01*
X81047685Y-108231486D01*
X80996796Y-108150497D01*
X80875964Y-107958193D01*
X80869239Y-107946025D01*
X80844597Y-107894856D01*
X80729199Y-107655228D01*
X80723879Y-107642386D01*
X80711935Y-107608253D01*
X80617273Y-107337725D01*
X80613426Y-107324366D01*
X80541606Y-107009700D01*
X80539277Y-106995992D01*
X80528906Y-106903951D01*
X80503041Y-106674390D01*
X80502274Y-106662269D01*
X80500012Y-106500855D01*
X80500000Y-106499117D01*
X80500000Y-106393713D01*
X82149500Y-106393713D01*
X82149500Y-106606286D01*
X82178231Y-106787690D01*
X82182754Y-106816243D01*
X82245612Y-107009700D01*
X82248444Y-107018414D01*
X82344951Y-107207820D01*
X82469890Y-107379786D01*
X82620213Y-107530109D01*
X82792179Y-107655048D01*
X82792181Y-107655049D01*
X82792184Y-107655051D01*
X82981588Y-107751557D01*
X83183757Y-107817246D01*
X83393713Y-107850500D01*
X83393714Y-107850500D01*
X83606286Y-107850500D01*
X83606287Y-107850500D01*
X83816243Y-107817246D01*
X84018412Y-107751557D01*
X84207816Y-107655051D01*
X84272226Y-107608255D01*
X84379786Y-107530109D01*
X84379788Y-107530106D01*
X84379792Y-107530104D01*
X84530104Y-107379792D01*
X84530106Y-107379788D01*
X84530109Y-107379786D01*
X84655048Y-107207820D01*
X84655047Y-107207820D01*
X84655051Y-107207816D01*
X84751557Y-107018412D01*
X84817246Y-106816243D01*
X84850500Y-106606287D01*
X84850500Y-106393713D01*
X84817246Y-106183757D01*
X84791699Y-106105131D01*
X93224500Y-106105131D01*
X93224500Y-107894856D01*
X93224502Y-107894882D01*
X93227413Y-107919987D01*
X93227415Y-107919991D01*
X93272793Y-108022764D01*
X93272794Y-108022765D01*
X93352235Y-108102206D01*
X93455009Y-108147585D01*
X93480135Y-108150500D01*
X95269864Y-108150499D01*
X95269879Y-108150497D01*
X95269882Y-108150497D01*
X95294987Y-108147586D01*
X95294988Y-108147585D01*
X95294991Y-108147585D01*
X95397765Y-108102206D01*
X95477206Y-108022765D01*
X95522585Y-107919991D01*
X95525500Y-107894865D01*
X95525499Y-107156046D01*
X95545183Y-107089009D01*
X95597987Y-107043254D01*
X95667146Y-107033310D01*
X95730702Y-107062335D01*
X95768476Y-107121113D01*
X95772970Y-107144606D01*
X95777454Y-107192993D01*
X95779244Y-107212310D01*
X95832675Y-107400099D01*
X95837596Y-107417392D01*
X95837596Y-107417394D01*
X95932632Y-107608253D01*
X96061127Y-107778406D01*
X96061128Y-107778407D01*
X96218698Y-107922052D01*
X96399981Y-108034298D01*
X96598802Y-108111321D01*
X96808390Y-108150500D01*
X96808392Y-108150500D01*
X97021608Y-108150500D01*
X97021610Y-108150500D01*
X97231198Y-108111321D01*
X97430019Y-108034298D01*
X97611302Y-107922052D01*
X97768872Y-107778407D01*
X97897366Y-107608255D01*
X97951270Y-107500000D01*
X97992403Y-107417394D01*
X97992403Y-107417393D01*
X97992405Y-107417389D01*
X98050756Y-107212310D01*
X98061529Y-107096047D01*
X98087315Y-107031111D01*
X98129622Y-107000804D01*
X98238130Y-107000804D01*
X98274503Y-107021668D01*
X98306693Y-107083681D01*
X98308470Y-107096047D01*
X98319244Y-107212310D01*
X98372675Y-107400099D01*
X98377596Y-107417392D01*
X98377596Y-107417394D01*
X98472632Y-107608253D01*
X98601127Y-107778406D01*
X98601128Y-107778407D01*
X98758698Y-107922052D01*
X98939981Y-108034298D01*
X99138802Y-108111321D01*
X99348390Y-108150500D01*
X99348392Y-108150500D01*
X99561608Y-108150500D01*
X99561610Y-108150500D01*
X99771198Y-108111321D01*
X99970019Y-108034298D01*
X100151302Y-107922052D01*
X100308872Y-107778407D01*
X100437366Y-107608255D01*
X100504325Y-107473781D01*
X100551825Y-107422548D01*
X100619488Y-107405126D01*
X100685828Y-107427051D01*
X100727705Y-107476651D01*
X100821399Y-107677578D01*
X100956894Y-107871082D01*
X101123917Y-108038105D01*
X101317421Y-108173600D01*
X101531507Y-108273429D01*
X101531516Y-108273433D01*
X101745000Y-108330634D01*
X101745000Y-107433012D01*
X101802007Y-107465925D01*
X101929174Y-107500000D01*
X102060826Y-107500000D01*
X102187993Y-107465925D01*
X102245000Y-107433012D01*
X102245000Y-108330633D01*
X102458483Y-108273433D01*
X102458492Y-108273429D01*
X102672578Y-108173600D01*
X102866082Y-108038105D01*
X103033105Y-107871082D01*
X103168600Y-107677578D01*
X103268429Y-107463492D01*
X103268432Y-107463486D01*
X103325636Y-107250000D01*
X102428012Y-107250000D01*
X102460925Y-107192993D01*
X102495000Y-107065826D01*
X102495000Y-106934174D01*
X102460925Y-106807007D01*
X102428012Y-106750000D01*
X103325636Y-106750000D01*
X103325635Y-106749999D01*
X103268432Y-106536513D01*
X103268429Y-106536507D01*
X103201843Y-106393713D01*
X117149500Y-106393713D01*
X117149500Y-106606286D01*
X117178231Y-106787690D01*
X117182754Y-106816243D01*
X117245612Y-107009700D01*
X117248444Y-107018414D01*
X117344951Y-107207820D01*
X117469890Y-107379786D01*
X117620213Y-107530109D01*
X117792179Y-107655048D01*
X117792181Y-107655049D01*
X117792184Y-107655051D01*
X117981588Y-107751557D01*
X118183757Y-107817246D01*
X118393713Y-107850500D01*
X118393714Y-107850500D01*
X118606286Y-107850500D01*
X118606287Y-107850500D01*
X118816243Y-107817246D01*
X119018412Y-107751557D01*
X119207816Y-107655051D01*
X119272226Y-107608255D01*
X119379786Y-107530109D01*
X119379788Y-107530106D01*
X119379792Y-107530104D01*
X119530104Y-107379792D01*
X119530106Y-107379788D01*
X119530109Y-107379786D01*
X119655048Y-107207820D01*
X119655047Y-107207820D01*
X119655051Y-107207816D01*
X119751557Y-107018412D01*
X119817246Y-106816243D01*
X119850500Y-106606287D01*
X119850500Y-106393713D01*
X119817246Y-106183757D01*
X119751557Y-105981588D01*
X119655051Y-105792184D01*
X119655049Y-105792181D01*
X119655048Y-105792179D01*
X119530109Y-105620213D01*
X119379786Y-105469890D01*
X119207820Y-105344951D01*
X119018414Y-105248444D01*
X119018413Y-105248443D01*
X119018412Y-105248443D01*
X118816243Y-105182754D01*
X118816241Y-105182753D01*
X118816240Y-105182753D01*
X118654957Y-105157208D01*
X118606287Y-105149500D01*
X118393713Y-105149500D01*
X118345042Y-105157208D01*
X118183760Y-105182753D01*
X117981585Y-105248444D01*
X117792179Y-105344951D01*
X117620213Y-105469890D01*
X117469890Y-105620213D01*
X117344951Y-105792179D01*
X117248444Y-105981585D01*
X117182753Y-106183760D01*
X117149500Y-106393713D01*
X103201843Y-106393713D01*
X103168600Y-106322422D01*
X103168599Y-106322420D01*
X103033113Y-106128926D01*
X103033108Y-106128920D01*
X102866082Y-105961894D01*
X102672578Y-105826399D01*
X102458492Y-105726570D01*
X102458486Y-105726567D01*
X102245000Y-105669364D01*
X102245000Y-106566988D01*
X102187993Y-106534075D01*
X102060826Y-106500000D01*
X101929174Y-106500000D01*
X101802007Y-106534075D01*
X101745000Y-106566988D01*
X101745000Y-105669364D01*
X101744999Y-105669364D01*
X101531513Y-105726567D01*
X101531507Y-105726570D01*
X101317422Y-105826399D01*
X101317420Y-105826400D01*
X101123926Y-105961886D01*
X101123920Y-105961891D01*
X100956891Y-106128920D01*
X100956886Y-106128926D01*
X100821400Y-106322420D01*
X100821399Y-106322422D01*
X100727705Y-106523348D01*
X100681532Y-106575787D01*
X100614339Y-106594939D01*
X100547457Y-106574723D01*
X100504324Y-106526216D01*
X100437366Y-106391745D01*
X100308872Y-106221593D01*
X100151302Y-106077948D01*
X99970019Y-105965702D01*
X99970017Y-105965701D01*
X99870608Y-105927190D01*
X99771198Y-105888679D01*
X99561610Y-105849500D01*
X99348390Y-105849500D01*
X99138802Y-105888679D01*
X99138799Y-105888679D01*
X99138799Y-105888680D01*
X98939982Y-105965701D01*
X98939980Y-105965702D01*
X98758699Y-106077947D01*
X98601127Y-106221593D01*
X98472632Y-106391746D01*
X98377596Y-106582605D01*
X98377596Y-106582607D01*
X98319244Y-106787689D01*
X98308471Y-106903951D01*
X98282685Y-106968888D01*
X98238130Y-107000804D01*
X98129622Y-107000804D01*
X98131869Y-106999194D01*
X98095497Y-106978331D01*
X98063307Y-106916318D01*
X98061529Y-106903951D01*
X98058175Y-106867759D01*
X98050756Y-106787690D01*
X97992405Y-106582611D01*
X97992403Y-106582606D01*
X97992403Y-106582605D01*
X97897367Y-106391746D01*
X97768872Y-106221593D01*
X97727368Y-106183757D01*
X97611302Y-106077948D01*
X97430019Y-105965702D01*
X97430017Y-105965701D01*
X97330608Y-105927190D01*
X97231198Y-105888679D01*
X97021610Y-105849500D01*
X96808390Y-105849500D01*
X96598802Y-105888679D01*
X96598799Y-105888679D01*
X96598799Y-105888680D01*
X96399982Y-105965701D01*
X96399980Y-105965702D01*
X96218699Y-106077947D01*
X96061127Y-106221593D01*
X95932632Y-106391746D01*
X95837596Y-106582605D01*
X95837596Y-106582607D01*
X95779244Y-106787689D01*
X95772970Y-106855394D01*
X95747183Y-106920331D01*
X95690383Y-106961018D01*
X95620602Y-106964538D01*
X95559995Y-106929772D01*
X95527806Y-106867759D01*
X95525499Y-106843952D01*
X95525499Y-106105143D01*
X95525499Y-106105136D01*
X95525497Y-106105117D01*
X95522586Y-106080012D01*
X95522585Y-106080010D01*
X95522585Y-106080009D01*
X95477206Y-105977235D01*
X95397765Y-105897794D01*
X95377124Y-105888680D01*
X95294992Y-105852415D01*
X95269865Y-105849500D01*
X93480143Y-105849500D01*
X93480117Y-105849502D01*
X93455012Y-105852413D01*
X93455008Y-105852415D01*
X93352235Y-105897793D01*
X93272794Y-105977234D01*
X93227415Y-106080006D01*
X93227415Y-106080008D01*
X93224500Y-106105131D01*
X84791699Y-106105131D01*
X84751557Y-105981588D01*
X84655051Y-105792184D01*
X84655049Y-105792181D01*
X84655048Y-105792179D01*
X84530109Y-105620213D01*
X84379786Y-105469890D01*
X84207820Y-105344951D01*
X84018414Y-105248444D01*
X84018413Y-105248443D01*
X84018412Y-105248443D01*
X83816243Y-105182754D01*
X83816241Y-105182753D01*
X83816240Y-105182753D01*
X83654957Y-105157208D01*
X83606287Y-105149500D01*
X83393713Y-105149500D01*
X83345042Y-105157208D01*
X83183760Y-105182753D01*
X82981585Y-105248444D01*
X82792179Y-105344951D01*
X82620213Y-105469890D01*
X82469890Y-105620213D01*
X82344951Y-105792179D01*
X82248444Y-105981585D01*
X82182753Y-106183760D01*
X82149500Y-106393713D01*
X80500000Y-106393713D01*
X80500000Y-104824999D01*
X94619722Y-104824999D01*
X94619722Y-104825000D01*
X94638762Y-104981818D01*
X94694780Y-105129523D01*
X94784517Y-105259530D01*
X94902760Y-105364283D01*
X94902762Y-105364284D01*
X95042634Y-105437696D01*
X95196014Y-105475500D01*
X95196015Y-105475500D01*
X95353985Y-105475500D01*
X95507365Y-105437696D01*
X95578814Y-105400196D01*
X95647240Y-105364283D01*
X95647247Y-105364276D01*
X95653413Y-105360022D01*
X95655348Y-105362825D01*
X95704644Y-105339510D01*
X95723934Y-105338000D01*
X96331069Y-105338000D01*
X96388694Y-105352203D01*
X96480135Y-105400196D01*
X96556825Y-105419098D01*
X96633514Y-105438000D01*
X96633515Y-105438000D01*
X96791485Y-105438000D01*
X96944865Y-105400196D01*
X97084740Y-105326783D01*
X97202983Y-105222030D01*
X97292720Y-105092023D01*
X97348737Y-104944318D01*
X97367778Y-104787500D01*
X97348737Y-104630682D01*
X97292720Y-104482977D01*
X97202983Y-104352970D01*
X97084740Y-104248217D01*
X97084738Y-104248216D01*
X97084737Y-104248215D01*
X96944865Y-104174803D01*
X96791486Y-104137000D01*
X96791485Y-104137000D01*
X96633515Y-104137000D01*
X96633514Y-104137000D01*
X96480136Y-104174803D01*
X96434263Y-104198879D01*
X96388694Y-104222796D01*
X96331069Y-104237000D01*
X95584982Y-104237000D01*
X95527358Y-104222797D01*
X95519268Y-104218551D01*
X95507364Y-104212303D01*
X95353985Y-104174500D01*
X95196015Y-104174500D01*
X95196014Y-104174500D01*
X95042634Y-104212303D01*
X94902762Y-104285715D01*
X94784516Y-104390471D01*
X94694781Y-104520475D01*
X94694780Y-104520476D01*
X94638762Y-104668181D01*
X94619722Y-104824999D01*
X80500000Y-104824999D01*
X80500000Y-102199773D01*
X97569948Y-102199773D01*
X97569948Y-102199774D01*
X97588988Y-102356592D01*
X97645006Y-102504297D01*
X97734743Y-102634304D01*
X97852986Y-102739057D01*
X97852988Y-102739058D01*
X97992860Y-102812470D01*
X98146240Y-102850274D01*
X98146241Y-102850274D01*
X98304211Y-102850274D01*
X98457591Y-102812470D01*
X98548600Y-102764703D01*
X98606226Y-102750500D01*
X99743569Y-102750500D01*
X99801194Y-102764703D01*
X99892635Y-102812696D01*
X99969325Y-102831598D01*
X100046014Y-102850500D01*
X100046015Y-102850500D01*
X100203985Y-102850500D01*
X100357365Y-102812696D01*
X100357796Y-102812470D01*
X100497240Y-102739283D01*
X100615483Y-102634530D01*
X100705220Y-102504523D01*
X100761237Y-102356818D01*
X100780278Y-102200000D01*
X100780251Y-102199773D01*
X100761237Y-102043181D01*
X100739992Y-101987164D01*
X100705220Y-101895477D01*
X100615483Y-101765470D01*
X100497240Y-101660717D01*
X100497238Y-101660716D01*
X100497237Y-101660715D01*
X100357365Y-101587303D01*
X100203986Y-101549500D01*
X100203985Y-101549500D01*
X100046015Y-101549500D01*
X100046014Y-101549500D01*
X99892636Y-101587303D01*
X99846763Y-101611379D01*
X99801194Y-101635296D01*
X99743569Y-101649500D01*
X98607088Y-101649500D01*
X98549462Y-101635296D01*
X98457589Y-101587077D01*
X98304212Y-101549274D01*
X98304211Y-101549274D01*
X98146241Y-101549274D01*
X98146240Y-101549274D01*
X97992860Y-101587077D01*
X97852988Y-101660489D01*
X97734742Y-101765245D01*
X97645007Y-101895249D01*
X97645006Y-101895250D01*
X97588988Y-102042955D01*
X97569948Y-102199773D01*
X80500000Y-102199773D01*
X80500000Y-97727525D01*
X116724500Y-97727525D01*
X116724500Y-99227526D01*
X116724500Y-99372474D01*
X116762016Y-99512485D01*
X116824363Y-99620475D01*
X116834489Y-99638013D01*
X116834491Y-99638016D01*
X117236063Y-100039588D01*
X117264324Y-100083298D01*
X117319780Y-100229523D01*
X117409517Y-100359530D01*
X117527760Y-100464283D01*
X117527762Y-100464284D01*
X117667634Y-100537696D01*
X117821014Y-100575500D01*
X117821015Y-100575500D01*
X117978985Y-100575500D01*
X118132365Y-100537696D01*
X118272240Y-100464283D01*
X118390483Y-100359530D01*
X118480220Y-100229523D01*
X118536237Y-100081818D01*
X118555278Y-99925000D01*
X118536237Y-99768182D01*
X118480220Y-99620477D01*
X118390483Y-99490470D01*
X118272240Y-99385717D01*
X118272238Y-99385716D01*
X118272237Y-99385715D01*
X118132367Y-99312304D01*
X118077626Y-99298812D01*
X118019621Y-99266096D01*
X117861819Y-99108294D01*
X117828334Y-99046971D01*
X117825500Y-99020613D01*
X117825500Y-98154380D01*
X117845185Y-98087341D01*
X117891874Y-98044584D01*
X117997240Y-97989283D01*
X118115483Y-97884530D01*
X118205220Y-97754523D01*
X118261237Y-97606818D01*
X118280278Y-97450000D01*
X118261237Y-97293182D01*
X118205220Y-97145477D01*
X118115483Y-97015470D01*
X117997240Y-96910717D01*
X117997238Y-96910716D01*
X117997237Y-96910715D01*
X117857365Y-96837303D01*
X117703986Y-96799500D01*
X117703985Y-96799500D01*
X117546015Y-96799500D01*
X117546014Y-96799500D01*
X117392634Y-96837303D01*
X117252762Y-96910715D01*
X117134516Y-97015471D01*
X117044781Y-97145474D01*
X116989325Y-97291699D01*
X116961065Y-97335407D01*
X116834491Y-97461983D01*
X116834489Y-97461986D01*
X116767380Y-97578225D01*
X116767377Y-97578229D01*
X116762017Y-97587511D01*
X116762016Y-97587515D01*
X116724500Y-97727525D01*
X80500000Y-97727525D01*
X80500000Y-95773992D01*
X114374500Y-95773992D01*
X114374500Y-95976007D01*
X114413907Y-96174119D01*
X114413909Y-96174127D01*
X114491212Y-96360752D01*
X114491217Y-96360762D01*
X114603441Y-96528718D01*
X114746281Y-96671558D01*
X114914237Y-96783782D01*
X114914241Y-96783784D01*
X114914244Y-96783786D01*
X115100873Y-96861091D01*
X115298992Y-96900499D01*
X115298996Y-96900500D01*
X115298997Y-96900500D01*
X116051004Y-96900500D01*
X116051005Y-96900499D01*
X116249127Y-96861091D01*
X116435756Y-96783786D01*
X116603718Y-96671558D01*
X116746558Y-96528718D01*
X116858786Y-96360756D01*
X116936091Y-96174127D01*
X116975500Y-95976003D01*
X116975500Y-95938766D01*
X118274500Y-95938766D01*
X118274500Y-96111233D01*
X118308143Y-96280366D01*
X118308146Y-96280378D01*
X118374138Y-96439698D01*
X118374145Y-96439711D01*
X118469954Y-96583098D01*
X118469957Y-96583102D01*
X118591897Y-96705042D01*
X118591901Y-96705045D01*
X118735288Y-96800854D01*
X118735301Y-96800861D01*
X118880708Y-96861090D01*
X118894626Y-96866855D01*
X119063766Y-96900499D01*
X119063769Y-96900500D01*
X119063771Y-96900500D01*
X119886231Y-96900500D01*
X119886232Y-96900499D01*
X120055374Y-96866855D01*
X120214705Y-96800858D01*
X120358099Y-96705045D01*
X120480045Y-96583099D01*
X120575858Y-96439705D01*
X120641855Y-96280374D01*
X120675500Y-96111229D01*
X120675500Y-95938771D01*
X120675500Y-95938768D01*
X120675499Y-95938766D01*
X120641856Y-95769633D01*
X120641855Y-95769626D01*
X120641853Y-95769621D01*
X120575861Y-95610301D01*
X120575854Y-95610288D01*
X120480045Y-95466901D01*
X120480042Y-95466897D01*
X120358102Y-95344957D01*
X120358098Y-95344954D01*
X120214711Y-95249145D01*
X120214698Y-95249138D01*
X120055378Y-95183146D01*
X120055366Y-95183143D01*
X119886232Y-95149500D01*
X119886229Y-95149500D01*
X119063771Y-95149500D01*
X119063768Y-95149500D01*
X118894633Y-95183143D01*
X118894621Y-95183146D01*
X118735301Y-95249138D01*
X118735288Y-95249145D01*
X118591901Y-95344954D01*
X118591897Y-95344957D01*
X118469957Y-95466897D01*
X118469954Y-95466901D01*
X118374145Y-95610288D01*
X118374138Y-95610301D01*
X118308146Y-95769621D01*
X118308143Y-95769633D01*
X118274500Y-95938766D01*
X116975500Y-95938766D01*
X116975500Y-95773997D01*
X116936091Y-95575873D01*
X116894932Y-95476507D01*
X116887463Y-95407037D01*
X116918738Y-95344558D01*
X116969060Y-95314700D01*
X116968207Y-95312452D01*
X116975222Y-95309790D01*
X116975225Y-95309790D01*
X117125852Y-95230734D01*
X117253183Y-95117929D01*
X117349818Y-94977930D01*
X117410140Y-94818872D01*
X117430645Y-94650000D01*
X117410140Y-94481128D01*
X117349818Y-94322070D01*
X117253183Y-94182071D01*
X117125852Y-94069266D01*
X117125849Y-94069263D01*
X116975226Y-93990210D01*
X116810056Y-93949500D01*
X116639944Y-93949500D01*
X116474773Y-93990210D01*
X116324150Y-94069263D01*
X116196816Y-94182072D01*
X116100182Y-94322068D01*
X116039860Y-94481125D01*
X116039859Y-94481130D01*
X116019355Y-94649999D01*
X116026708Y-94710553D01*
X116015248Y-94779476D01*
X115968344Y-94831263D01*
X115903612Y-94849500D01*
X115298992Y-94849500D01*
X115100880Y-94888907D01*
X115100872Y-94888909D01*
X114914247Y-94966212D01*
X114914237Y-94966217D01*
X114746281Y-95078441D01*
X114603441Y-95221281D01*
X114491217Y-95389237D01*
X114491212Y-95389247D01*
X114413909Y-95575872D01*
X114413907Y-95575880D01*
X114374500Y-95773992D01*
X80500000Y-95773992D01*
X80500000Y-90143995D01*
X82144499Y-90143995D01*
X82171418Y-90279322D01*
X82171421Y-90279332D01*
X82224221Y-90406804D01*
X82224228Y-90406817D01*
X82300885Y-90521541D01*
X82300888Y-90521545D01*
X82398454Y-90619111D01*
X82398458Y-90619114D01*
X82513182Y-90695771D01*
X82513195Y-90695778D01*
X82640667Y-90748578D01*
X82640672Y-90748580D01*
X82640676Y-90748580D01*
X82640677Y-90748581D01*
X82776004Y-90775500D01*
X82776007Y-90775500D01*
X82913995Y-90775500D01*
X83005041Y-90757389D01*
X83049328Y-90748580D01*
X83176811Y-90695775D01*
X83291542Y-90619114D01*
X83389114Y-90521542D01*
X83465775Y-90406811D01*
X83518580Y-90279328D01*
X83545500Y-90143993D01*
X83545500Y-90006007D01*
X83545500Y-90006004D01*
X83518581Y-89870677D01*
X83518580Y-89870676D01*
X83518580Y-89870672D01*
X83497123Y-89818869D01*
X83465778Y-89743195D01*
X83465771Y-89743182D01*
X83389114Y-89628458D01*
X83389111Y-89628454D01*
X83291545Y-89530888D01*
X83291541Y-89530885D01*
X83176817Y-89454228D01*
X83176804Y-89454221D01*
X83049332Y-89401421D01*
X83049322Y-89401418D01*
X82913995Y-89374500D01*
X82913993Y-89374500D01*
X82776007Y-89374500D01*
X82776005Y-89374500D01*
X82640677Y-89401418D01*
X82640667Y-89401421D01*
X82513195Y-89454221D01*
X82513182Y-89454228D01*
X82398458Y-89530885D01*
X82398454Y-89530888D01*
X82300888Y-89628454D01*
X82300885Y-89628458D01*
X82224228Y-89743182D01*
X82224221Y-89743195D01*
X82171421Y-89870667D01*
X82171418Y-89870677D01*
X82144500Y-90006004D01*
X82144500Y-90006007D01*
X82144500Y-90143993D01*
X82144500Y-90143995D01*
X82144499Y-90143995D01*
X80500000Y-90143995D01*
X80500000Y-88323992D01*
X114374500Y-88323992D01*
X114374500Y-88526007D01*
X114413907Y-88724119D01*
X114413909Y-88724127D01*
X114491212Y-88910752D01*
X114491217Y-88910762D01*
X114603441Y-89078718D01*
X114746281Y-89221558D01*
X114914237Y-89333782D01*
X114914241Y-89333784D01*
X114914244Y-89333786D01*
X115100873Y-89411091D01*
X115298484Y-89450398D01*
X115298992Y-89450499D01*
X115298996Y-89450500D01*
X115903612Y-89450500D01*
X115970651Y-89470185D01*
X116016406Y-89522989D01*
X116026708Y-89589447D01*
X116019355Y-89650000D01*
X116039859Y-89818869D01*
X116039860Y-89818874D01*
X116100182Y-89977931D01*
X116119560Y-90006004D01*
X116196817Y-90117929D01*
X116226240Y-90143995D01*
X116324150Y-90230736D01*
X116474773Y-90309789D01*
X116474775Y-90309790D01*
X116639944Y-90350500D01*
X116810056Y-90350500D01*
X116975225Y-90309790D01*
X117054692Y-90268081D01*
X117125849Y-90230736D01*
X117125850Y-90230734D01*
X117125852Y-90230734D01*
X117253183Y-90117929D01*
X117349818Y-89977930D01*
X117410140Y-89818872D01*
X117430645Y-89650000D01*
X117410140Y-89481128D01*
X117398524Y-89450500D01*
X117369702Y-89374500D01*
X117349818Y-89322070D01*
X117253183Y-89182071D01*
X117125852Y-89069266D01*
X117125849Y-89069263D01*
X116975225Y-88990209D01*
X116968210Y-88987549D01*
X116969131Y-88985119D01*
X116919438Y-88956186D01*
X116887649Y-88893967D01*
X116894544Y-88824439D01*
X116894932Y-88823492D01*
X116936091Y-88724127D01*
X116975500Y-88526003D01*
X116975500Y-88323997D01*
X116948601Y-88188766D01*
X118274500Y-88188766D01*
X118274500Y-88361233D01*
X118308143Y-88530366D01*
X118308146Y-88530378D01*
X118374138Y-88689698D01*
X118374145Y-88689711D01*
X118469954Y-88833098D01*
X118469957Y-88833102D01*
X118591897Y-88955042D01*
X118591901Y-88955045D01*
X118735288Y-89050854D01*
X118735301Y-89050861D01*
X118894621Y-89116853D01*
X118894626Y-89116855D01*
X119063766Y-89150499D01*
X119063769Y-89150500D01*
X119063771Y-89150500D01*
X119886231Y-89150500D01*
X119886232Y-89150499D01*
X120055374Y-89116855D01*
X120214705Y-89050858D01*
X120358099Y-88955045D01*
X120480045Y-88833099D01*
X120575858Y-88689705D01*
X120641855Y-88530374D01*
X120675500Y-88361229D01*
X120675500Y-88188771D01*
X120675500Y-88188768D01*
X120675499Y-88188766D01*
X120662989Y-88125873D01*
X120641855Y-88019626D01*
X120608557Y-87939237D01*
X120575861Y-87860301D01*
X120575854Y-87860288D01*
X120480045Y-87716901D01*
X120480042Y-87716897D01*
X120358102Y-87594957D01*
X120358098Y-87594954D01*
X120214711Y-87499145D01*
X120214698Y-87499138D01*
X120055378Y-87433146D01*
X120055366Y-87433143D01*
X119886232Y-87399500D01*
X119886229Y-87399500D01*
X119063771Y-87399500D01*
X119063768Y-87399500D01*
X118894633Y-87433143D01*
X118894621Y-87433146D01*
X118735301Y-87499138D01*
X118735288Y-87499145D01*
X118591901Y-87594954D01*
X118591897Y-87594957D01*
X118469957Y-87716897D01*
X118469954Y-87716901D01*
X118374145Y-87860288D01*
X118374138Y-87860301D01*
X118308146Y-88019621D01*
X118308143Y-88019633D01*
X118274500Y-88188766D01*
X116948601Y-88188766D01*
X116936091Y-88125873D01*
X116858786Y-87939244D01*
X116858784Y-87939241D01*
X116858782Y-87939237D01*
X116746558Y-87771281D01*
X116603718Y-87628441D01*
X116435762Y-87516217D01*
X116435752Y-87516212D01*
X116249127Y-87438909D01*
X116249119Y-87438907D01*
X116051007Y-87399500D01*
X116051003Y-87399500D01*
X115298997Y-87399500D01*
X115298992Y-87399500D01*
X115100880Y-87438907D01*
X115100872Y-87438909D01*
X114914247Y-87516212D01*
X114914237Y-87516217D01*
X114746281Y-87628441D01*
X114603441Y-87771281D01*
X114491217Y-87939237D01*
X114491212Y-87939247D01*
X114413909Y-88125872D01*
X114413907Y-88125880D01*
X114374500Y-88323992D01*
X80500000Y-88323992D01*
X80500000Y-87143995D01*
X82144499Y-87143995D01*
X82171418Y-87279322D01*
X82171421Y-87279332D01*
X82224221Y-87406804D01*
X82224228Y-87406817D01*
X82300885Y-87521541D01*
X82300888Y-87521545D01*
X82398454Y-87619111D01*
X82398458Y-87619114D01*
X82513182Y-87695771D01*
X82513195Y-87695778D01*
X82640667Y-87748578D01*
X82640672Y-87748580D01*
X82640676Y-87748580D01*
X82640677Y-87748581D01*
X82776004Y-87775500D01*
X82776007Y-87775500D01*
X82913995Y-87775500D01*
X83005041Y-87757389D01*
X83049328Y-87748580D01*
X83176811Y-87695775D01*
X83291542Y-87619114D01*
X83389114Y-87521542D01*
X83465775Y-87406811D01*
X83518580Y-87279328D01*
X83545500Y-87143993D01*
X83545500Y-87006007D01*
X83545500Y-87006004D01*
X83518581Y-86870677D01*
X83518580Y-86870676D01*
X83518580Y-86870672D01*
X83518578Y-86870667D01*
X83465778Y-86743195D01*
X83465771Y-86743182D01*
X83389114Y-86628458D01*
X83389111Y-86628454D01*
X83291545Y-86530888D01*
X83291541Y-86530885D01*
X83176817Y-86454228D01*
X83176804Y-86454221D01*
X83049332Y-86401421D01*
X83049322Y-86401418D01*
X82913995Y-86374500D01*
X82913993Y-86374500D01*
X82776007Y-86374500D01*
X82776005Y-86374500D01*
X82640677Y-86401418D01*
X82640667Y-86401421D01*
X82513195Y-86454221D01*
X82513182Y-86454228D01*
X82398458Y-86530885D01*
X82398454Y-86530888D01*
X82300888Y-86628454D01*
X82300885Y-86628458D01*
X82224228Y-86743182D01*
X82224221Y-86743195D01*
X82171421Y-86870667D01*
X82171418Y-86870677D01*
X82144500Y-87006004D01*
X82144500Y-87006007D01*
X82144500Y-87143993D01*
X82144500Y-87143995D01*
X82144499Y-87143995D01*
X80500000Y-87143995D01*
X80500000Y-81500882D01*
X80500012Y-81499144D01*
X80501490Y-81393713D01*
X82149500Y-81393713D01*
X82149500Y-81606286D01*
X82175867Y-81772765D01*
X82182754Y-81816243D01*
X82209183Y-81897584D01*
X82248444Y-82018414D01*
X82344951Y-82207820D01*
X82469890Y-82379786D01*
X82620213Y-82530109D01*
X82792179Y-82655048D01*
X82792181Y-82655049D01*
X82792184Y-82655051D01*
X82981588Y-82751557D01*
X83183757Y-82817246D01*
X83393713Y-82850500D01*
X83393714Y-82850500D01*
X83606286Y-82850500D01*
X83606287Y-82850500D01*
X83816243Y-82817246D01*
X84018412Y-82751557D01*
X84207816Y-82655051D01*
X84229789Y-82639086D01*
X84379786Y-82530109D01*
X84379788Y-82530106D01*
X84379792Y-82530104D01*
X84530104Y-82379792D01*
X84530106Y-82379788D01*
X84530109Y-82379786D01*
X84655048Y-82207820D01*
X84655047Y-82207820D01*
X84655051Y-82207816D01*
X84751557Y-82018412D01*
X84817246Y-81816243D01*
X84850500Y-81606287D01*
X84850500Y-81393713D01*
X84817246Y-81183757D01*
X84751557Y-80981588D01*
X84655051Y-80792184D01*
X84655049Y-80792181D01*
X84655048Y-80792179D01*
X84530109Y-80620213D01*
X84409895Y-80499999D01*
X88849364Y-80499999D01*
X88849364Y-80500000D01*
X89746988Y-80500000D01*
X89714075Y-80557007D01*
X89680000Y-80684174D01*
X89680000Y-80815826D01*
X89714075Y-80942993D01*
X89746988Y-81000000D01*
X88849364Y-81000000D01*
X88906567Y-81213486D01*
X88906570Y-81213492D01*
X89006399Y-81427578D01*
X89141894Y-81621082D01*
X89308917Y-81788105D01*
X89502421Y-81923600D01*
X89716507Y-82023429D01*
X89716516Y-82023433D01*
X89930000Y-82080634D01*
X89930000Y-81183012D01*
X89987007Y-81215925D01*
X90114174Y-81250000D01*
X90245826Y-81250000D01*
X90372993Y-81215925D01*
X90430000Y-81183012D01*
X90430000Y-82080633D01*
X90643483Y-82023433D01*
X90643492Y-82023429D01*
X90857578Y-81923600D01*
X91051082Y-81788105D01*
X91218105Y-81621082D01*
X91353600Y-81427578D01*
X91447294Y-81226651D01*
X91493466Y-81174212D01*
X91560660Y-81155060D01*
X91627541Y-81175276D01*
X91670676Y-81223785D01*
X91737632Y-81358253D01*
X91844029Y-81499144D01*
X91866128Y-81528407D01*
X92023698Y-81672052D01*
X92204981Y-81784298D01*
X92403802Y-81861321D01*
X92613390Y-81900500D01*
X92613392Y-81900500D01*
X92826608Y-81900500D01*
X92826610Y-81900500D01*
X93036198Y-81861321D01*
X93235019Y-81784298D01*
X93416302Y-81672052D01*
X93573872Y-81528407D01*
X93702366Y-81358255D01*
X93756270Y-81250000D01*
X93797403Y-81167394D01*
X93797403Y-81167393D01*
X93797405Y-81167389D01*
X93855756Y-80962310D01*
X93866529Y-80846047D01*
X93892315Y-80781111D01*
X93934622Y-80750804D01*
X94043130Y-80750804D01*
X94079503Y-80771668D01*
X94111693Y-80833681D01*
X94113470Y-80846047D01*
X94124244Y-80962310D01*
X94177675Y-81150099D01*
X94182596Y-81167392D01*
X94182596Y-81167394D01*
X94277632Y-81358253D01*
X94384029Y-81499144D01*
X94406128Y-81528407D01*
X94563698Y-81672052D01*
X94744981Y-81784298D01*
X94943802Y-81861321D01*
X95153390Y-81900500D01*
X95153392Y-81900500D01*
X95366608Y-81900500D01*
X95366610Y-81900500D01*
X95576198Y-81861321D01*
X95775019Y-81784298D01*
X95956302Y-81672052D01*
X96113872Y-81528407D01*
X96242366Y-81358255D01*
X96296270Y-81250000D01*
X96337403Y-81167394D01*
X96337403Y-81167393D01*
X96337405Y-81167389D01*
X96395756Y-80962310D01*
X96402029Y-80894605D01*
X96427814Y-80829669D01*
X96484614Y-80788981D01*
X96554395Y-80785461D01*
X96615002Y-80820225D01*
X96647193Y-80882238D01*
X96649500Y-80906047D01*
X96649500Y-81644856D01*
X96649502Y-81644882D01*
X96652413Y-81669987D01*
X96652415Y-81669991D01*
X96697793Y-81772764D01*
X96697794Y-81772765D01*
X96777235Y-81852206D01*
X96880009Y-81897585D01*
X96905135Y-81900500D01*
X98694864Y-81900499D01*
X98694879Y-81900497D01*
X98694882Y-81900497D01*
X98719987Y-81897586D01*
X98719988Y-81897585D01*
X98719991Y-81897585D01*
X98822765Y-81852206D01*
X98902206Y-81772765D01*
X98947585Y-81669991D01*
X98950500Y-81644865D01*
X98950499Y-80499999D01*
X102849364Y-80499999D01*
X102849364Y-80500000D01*
X103746988Y-80500000D01*
X103714075Y-80557007D01*
X103680000Y-80684174D01*
X103680000Y-80815826D01*
X103714075Y-80942993D01*
X103746988Y-81000000D01*
X102849364Y-81000000D01*
X102906567Y-81213486D01*
X102906570Y-81213492D01*
X103006399Y-81427578D01*
X103141894Y-81621082D01*
X103308917Y-81788105D01*
X103502421Y-81923600D01*
X103716507Y-82023429D01*
X103716516Y-82023433D01*
X103930000Y-82080634D01*
X103930000Y-81183012D01*
X103987007Y-81215925D01*
X104114174Y-81250000D01*
X104245826Y-81250000D01*
X104372993Y-81215925D01*
X104430000Y-81183012D01*
X104430000Y-82080633D01*
X104643483Y-82023433D01*
X104643492Y-82023429D01*
X104857578Y-81923600D01*
X105051082Y-81788105D01*
X105218105Y-81621082D01*
X105353600Y-81427578D01*
X105447294Y-81226651D01*
X105493466Y-81174212D01*
X105560660Y-81155060D01*
X105627541Y-81175276D01*
X105670676Y-81223785D01*
X105737632Y-81358253D01*
X105844029Y-81499144D01*
X105866128Y-81528407D01*
X106023698Y-81672052D01*
X106204981Y-81784298D01*
X106403802Y-81861321D01*
X106613390Y-81900500D01*
X106613392Y-81900500D01*
X106826608Y-81900500D01*
X106826610Y-81900500D01*
X107036198Y-81861321D01*
X107235019Y-81784298D01*
X107416302Y-81672052D01*
X107573872Y-81528407D01*
X107702366Y-81358255D01*
X107756270Y-81250000D01*
X107797403Y-81167394D01*
X107797403Y-81167393D01*
X107797405Y-81167389D01*
X107855756Y-80962310D01*
X107866529Y-80846047D01*
X107892315Y-80781111D01*
X107934622Y-80750804D01*
X108043130Y-80750804D01*
X108079503Y-80771668D01*
X108111693Y-80833681D01*
X108113470Y-80846047D01*
X108124244Y-80962310D01*
X108177675Y-81150099D01*
X108182596Y-81167392D01*
X108182596Y-81167394D01*
X108277632Y-81358253D01*
X108384029Y-81499144D01*
X108406128Y-81528407D01*
X108563698Y-81672052D01*
X108744981Y-81784298D01*
X108943802Y-81861321D01*
X109153390Y-81900500D01*
X109153392Y-81900500D01*
X109366608Y-81900500D01*
X109366610Y-81900500D01*
X109576198Y-81861321D01*
X109775019Y-81784298D01*
X109956302Y-81672052D01*
X110113872Y-81528407D01*
X110242366Y-81358255D01*
X110296270Y-81250000D01*
X110337403Y-81167394D01*
X110337403Y-81167393D01*
X110337405Y-81167389D01*
X110395756Y-80962310D01*
X110402029Y-80894605D01*
X110427814Y-80829669D01*
X110484614Y-80788981D01*
X110554395Y-80785461D01*
X110615002Y-80820225D01*
X110647193Y-80882238D01*
X110649500Y-80906047D01*
X110649500Y-81644856D01*
X110649502Y-81644882D01*
X110652413Y-81669987D01*
X110652415Y-81669991D01*
X110697793Y-81772764D01*
X110697794Y-81772765D01*
X110777235Y-81852206D01*
X110880009Y-81897585D01*
X110905135Y-81900500D01*
X112694864Y-81900499D01*
X112694879Y-81900497D01*
X112694882Y-81900497D01*
X112719987Y-81897586D01*
X112719988Y-81897585D01*
X112719991Y-81897585D01*
X112822765Y-81852206D01*
X112902206Y-81772765D01*
X112947585Y-81669991D01*
X112950500Y-81644865D01*
X112950500Y-81393713D01*
X117149500Y-81393713D01*
X117149500Y-81606286D01*
X117175867Y-81772765D01*
X117182754Y-81816243D01*
X117209183Y-81897584D01*
X117248444Y-82018414D01*
X117344951Y-82207820D01*
X117469890Y-82379786D01*
X117620213Y-82530109D01*
X117792179Y-82655048D01*
X117792181Y-82655049D01*
X117792184Y-82655051D01*
X117981588Y-82751557D01*
X118183757Y-82817246D01*
X118393713Y-82850500D01*
X118393714Y-82850500D01*
X118606286Y-82850500D01*
X118606287Y-82850500D01*
X118816243Y-82817246D01*
X119018412Y-82751557D01*
X119207816Y-82655051D01*
X119229789Y-82639086D01*
X119379786Y-82530109D01*
X119379788Y-82530106D01*
X119379792Y-82530104D01*
X119530104Y-82379792D01*
X119530106Y-82379788D01*
X119530109Y-82379786D01*
X119655048Y-82207820D01*
X119655047Y-82207820D01*
X119655051Y-82207816D01*
X119751557Y-82018412D01*
X119817246Y-81816243D01*
X119850500Y-81606287D01*
X119850500Y-81393713D01*
X119817246Y-81183757D01*
X119751557Y-80981588D01*
X119655051Y-80792184D01*
X119655049Y-80792181D01*
X119655048Y-80792179D01*
X119530109Y-80620213D01*
X119379786Y-80469890D01*
X119207820Y-80344951D01*
X119018414Y-80248444D01*
X119018413Y-80248443D01*
X119018412Y-80248443D01*
X118816243Y-80182754D01*
X118816241Y-80182753D01*
X118816240Y-80182753D01*
X118654957Y-80157208D01*
X118606287Y-80149500D01*
X118393713Y-80149500D01*
X118345042Y-80157208D01*
X118183760Y-80182753D01*
X117981585Y-80248444D01*
X117792179Y-80344951D01*
X117620213Y-80469890D01*
X117469890Y-80620213D01*
X117344951Y-80792179D01*
X117248444Y-80981585D01*
X117182753Y-81183760D01*
X117149500Y-81393713D01*
X112950500Y-81393713D01*
X112950499Y-79855136D01*
X112950497Y-79855117D01*
X112947586Y-79830012D01*
X112947585Y-79830010D01*
X112947585Y-79830009D01*
X112902206Y-79727235D01*
X112822765Y-79647794D01*
X112802124Y-79638680D01*
X112719992Y-79602415D01*
X112694865Y-79599500D01*
X110905143Y-79599500D01*
X110905117Y-79599502D01*
X110880012Y-79602413D01*
X110880008Y-79602415D01*
X110777235Y-79647793D01*
X110697794Y-79727234D01*
X110652415Y-79830006D01*
X110652415Y-79830008D01*
X110649500Y-79855131D01*
X110649500Y-80593951D01*
X110629815Y-80660990D01*
X110577011Y-80706745D01*
X110507853Y-80716689D01*
X110444297Y-80687664D01*
X110406523Y-80628886D01*
X110402029Y-80605391D01*
X110395756Y-80537689D01*
X110368812Y-80442993D01*
X110337405Y-80332611D01*
X110337403Y-80332606D01*
X110337403Y-80332605D01*
X110242367Y-80141746D01*
X110113872Y-79971593D01*
X109956302Y-79827948D01*
X109775019Y-79715702D01*
X109775017Y-79715701D01*
X109675608Y-79677190D01*
X109576198Y-79638679D01*
X109366610Y-79599500D01*
X109153390Y-79599500D01*
X108943802Y-79638679D01*
X108943799Y-79638679D01*
X108943799Y-79638680D01*
X108744982Y-79715701D01*
X108744980Y-79715702D01*
X108563699Y-79827947D01*
X108406127Y-79971593D01*
X108277632Y-80141746D01*
X108182596Y-80332605D01*
X108182596Y-80332607D01*
X108124244Y-80537689D01*
X108113471Y-80653951D01*
X108087685Y-80718888D01*
X108043130Y-80750804D01*
X107934622Y-80750804D01*
X107936869Y-80749194D01*
X107900497Y-80728331D01*
X107868307Y-80666318D01*
X107866529Y-80653951D01*
X107864206Y-80628886D01*
X107855756Y-80537690D01*
X107797405Y-80332611D01*
X107797403Y-80332606D01*
X107797403Y-80332605D01*
X107702367Y-80141746D01*
X107573872Y-79971593D01*
X107416302Y-79827948D01*
X107235019Y-79715702D01*
X107235017Y-79715701D01*
X107135608Y-79677190D01*
X107036198Y-79638679D01*
X106826610Y-79599500D01*
X106613390Y-79599500D01*
X106403802Y-79638679D01*
X106403799Y-79638679D01*
X106403799Y-79638680D01*
X106204982Y-79715701D01*
X106204980Y-79715702D01*
X106023699Y-79827947D01*
X105866127Y-79971593D01*
X105737634Y-80141744D01*
X105670676Y-80276215D01*
X105623173Y-80327452D01*
X105555510Y-80344873D01*
X105489170Y-80322947D01*
X105447294Y-80273348D01*
X105353600Y-80072422D01*
X105353599Y-80072420D01*
X105218113Y-79878926D01*
X105218108Y-79878920D01*
X105051082Y-79711894D01*
X104857578Y-79576399D01*
X104643492Y-79476570D01*
X104643486Y-79476567D01*
X104430000Y-79419364D01*
X104430000Y-80316988D01*
X104372993Y-80284075D01*
X104245826Y-80250000D01*
X104114174Y-80250000D01*
X103987007Y-80284075D01*
X103930000Y-80316988D01*
X103930000Y-79419364D01*
X103929999Y-79419364D01*
X103716513Y-79476567D01*
X103716507Y-79476570D01*
X103502422Y-79576399D01*
X103502420Y-79576400D01*
X103308926Y-79711886D01*
X103308920Y-79711891D01*
X103141891Y-79878920D01*
X103141886Y-79878926D01*
X103006400Y-80072420D01*
X103006399Y-80072422D01*
X102906570Y-80286507D01*
X102906567Y-80286513D01*
X102849364Y-80499999D01*
X98950499Y-80499999D01*
X98950499Y-79855136D01*
X98950497Y-79855117D01*
X98947586Y-79830012D01*
X98947585Y-79830010D01*
X98947585Y-79830009D01*
X98902206Y-79727235D01*
X98822765Y-79647794D01*
X98802124Y-79638680D01*
X98719992Y-79602415D01*
X98694865Y-79599500D01*
X96905143Y-79599500D01*
X96905117Y-79599502D01*
X96880012Y-79602413D01*
X96880008Y-79602415D01*
X96777235Y-79647793D01*
X96697794Y-79727234D01*
X96652415Y-79830006D01*
X96652415Y-79830008D01*
X96649500Y-79855131D01*
X96649500Y-80593951D01*
X96629815Y-80660990D01*
X96577011Y-80706745D01*
X96507853Y-80716689D01*
X96444297Y-80687664D01*
X96406523Y-80628886D01*
X96402029Y-80605391D01*
X96395756Y-80537689D01*
X96368812Y-80442993D01*
X96337405Y-80332611D01*
X96337403Y-80332606D01*
X96337403Y-80332605D01*
X96242367Y-80141746D01*
X96113872Y-79971593D01*
X95956302Y-79827948D01*
X95775019Y-79715702D01*
X95775017Y-79715701D01*
X95675608Y-79677190D01*
X95576198Y-79638679D01*
X95366610Y-79599500D01*
X95153390Y-79599500D01*
X94943802Y-79638679D01*
X94943799Y-79638679D01*
X94943799Y-79638680D01*
X94744982Y-79715701D01*
X94744980Y-79715702D01*
X94563699Y-79827947D01*
X94406127Y-79971593D01*
X94277632Y-80141746D01*
X94182596Y-80332605D01*
X94182596Y-80332607D01*
X94124244Y-80537689D01*
X94113471Y-80653951D01*
X94087685Y-80718888D01*
X94043130Y-80750804D01*
X93934622Y-80750804D01*
X93936869Y-80749194D01*
X93900497Y-80728331D01*
X93868307Y-80666318D01*
X93866529Y-80653951D01*
X93864206Y-80628886D01*
X93855756Y-80537690D01*
X93797405Y-80332611D01*
X93797403Y-80332606D01*
X93797403Y-80332605D01*
X93702367Y-80141746D01*
X93573872Y-79971593D01*
X93416302Y-79827948D01*
X93235019Y-79715702D01*
X93235017Y-79715701D01*
X93135608Y-79677190D01*
X93036198Y-79638679D01*
X92826610Y-79599500D01*
X92613390Y-79599500D01*
X92403802Y-79638679D01*
X92403799Y-79638679D01*
X92403799Y-79638680D01*
X92204982Y-79715701D01*
X92204980Y-79715702D01*
X92023699Y-79827947D01*
X91866127Y-79971593D01*
X91737634Y-80141744D01*
X91670676Y-80276215D01*
X91623173Y-80327452D01*
X91555510Y-80344873D01*
X91489170Y-80322947D01*
X91447294Y-80273348D01*
X91353600Y-80072422D01*
X91353599Y-80072420D01*
X91218113Y-79878926D01*
X91218108Y-79878920D01*
X91051082Y-79711894D01*
X90857578Y-79576399D01*
X90643492Y-79476570D01*
X90643486Y-79476567D01*
X90430000Y-79419364D01*
X90430000Y-80316988D01*
X90372993Y-80284075D01*
X90245826Y-80250000D01*
X90114174Y-80250000D01*
X89987007Y-80284075D01*
X89930000Y-80316988D01*
X89930000Y-79419364D01*
X89929999Y-79419364D01*
X89716513Y-79476567D01*
X89716507Y-79476570D01*
X89502422Y-79576399D01*
X89502420Y-79576400D01*
X89308926Y-79711886D01*
X89308920Y-79711891D01*
X89141891Y-79878920D01*
X89141886Y-79878926D01*
X89006400Y-80072420D01*
X89006399Y-80072422D01*
X88906570Y-80286507D01*
X88906567Y-80286513D01*
X88849364Y-80499999D01*
X84409895Y-80499999D01*
X84379786Y-80469890D01*
X84207820Y-80344951D01*
X84018414Y-80248444D01*
X84018413Y-80248443D01*
X84018412Y-80248443D01*
X83816243Y-80182754D01*
X83816241Y-80182753D01*
X83816240Y-80182753D01*
X83654957Y-80157208D01*
X83606287Y-80149500D01*
X83393713Y-80149500D01*
X83345042Y-80157208D01*
X83183760Y-80182753D01*
X82981585Y-80248444D01*
X82792179Y-80344951D01*
X82620213Y-80469890D01*
X82469890Y-80620213D01*
X82344951Y-80792179D01*
X82248444Y-80981585D01*
X82182753Y-81183760D01*
X82149500Y-81393713D01*
X80501490Y-81393713D01*
X80501987Y-81358253D01*
X80502274Y-81337729D01*
X80503041Y-81325610D01*
X80539277Y-81004005D01*
X80541606Y-80990299D01*
X80588359Y-80785461D01*
X80613427Y-80675627D01*
X80617272Y-80662279D01*
X80723883Y-80357601D01*
X80729196Y-80344777D01*
X80869243Y-80053965D01*
X80875959Y-80041813D01*
X81047693Y-79768501D01*
X81055723Y-79757183D01*
X81256979Y-79504816D01*
X81266228Y-79494467D01*
X81494467Y-79266228D01*
X81504816Y-79256979D01*
X81757183Y-79055723D01*
X81768501Y-79047693D01*
X82041813Y-78875959D01*
X82053965Y-78869243D01*
X82344777Y-78729196D01*
X82357601Y-78723883D01*
X82662279Y-78617272D01*
X82675627Y-78613427D01*
X82893293Y-78563746D01*
X82990299Y-78541606D01*
X83004005Y-78539277D01*
X83325610Y-78503041D01*
X83337729Y-78502274D01*
X83499144Y-78500011D01*
X83500882Y-78500000D01*
X118499118Y-78500000D01*
X118500855Y-78500011D01*
G37*
%TD.AperFunction*%
%TD*%
M02*
