M48
; DRILL file {KiCad 8.0.3} date 2025-05-21T19:02:42+0545
; FORMAT={-:-/ absolute / metric / decimal}
; #@! TF.CreationDate,2025-05-21T19:02:42+05:45
; #@! TF.GenerationSoftware,Kicad,Pcbnew,8.0.3
; #@! TF.FileFunction,MixedPlating,1,2
FMAT,2
METRIC
; #@! TA.AperFunction,Plated,PTH,ViaDrill
T1C0.300
; #@! TA.AperFunction,Plated,PTH,ComponentDrill
T2C0.550
; #@! TA.AperFunction,Plated,PTH,ComponentDrill
T3C0.850
; #@! TA.AperFunction,Plated,PTH,ComponentDrill
T4C1.000
; #@! TA.AperFunction,NonPlated,NPTH,ComponentDrill
T5C0.800
; #@! TA.AperFunction,NonPlated,NPTH,ComponentDrill
T6C0.900
; #@! TA.AperFunction,NonPlated,NPTH,ComponentDrill
T7C2.200
%
G90
G05
T1
X85.05Y-85.45
X87.775Y-94.525
X89.5Y-89.85
X91.15Y-90.225
X91.775Y-97.225
X91.775Y-100.275
X92.016Y-92.7
X92.75Y-88.95
X95.275Y-104.825
X96.25Y-94.6
X96.5Y-90.65
X96.712Y-104.787
X97.925Y-99.325
X98.225Y-102.2
X100.125Y-102.2
X101.0Y-96.35
X105.725Y-91.55
X110.375Y-99.225
X110.4Y-95.025
X110.4Y-95.95
X111.3Y-99.225
X114.15Y-99.75
X114.2Y-90.8
X117.625Y-97.45
X117.9Y-99.925
X118.075Y-98.775
T4
X90.18Y-80.75
X92.72Y-80.75
X94.375Y-107.0
X95.26Y-80.75
X96.915Y-107.0
X97.8Y-80.75
X99.455Y-107.0
X101.995Y-107.0
X104.18Y-80.75
X106.72Y-80.75
X109.26Y-80.75
X111.8Y-80.75
T5
X116.725Y-89.65
X116.725Y-94.65
T6
X82.845Y-87.075
X82.845Y-90.075
T7
X83.5Y-81.5
X83.5Y-106.5
X118.5Y-81.5
X118.5Y-106.5
T2
G00X119.15Y-88.275
M15
G01X119.8Y-88.275
M16
G05
G00X119.15Y-96.025
M15
G01X119.8Y-96.025
M16
G05
T3
G00X115.4Y-88.425
M15
G01X115.95Y-88.425
M16
G05
G00X115.4Y-95.875
M15
G01X115.95Y-95.875
M16
G05
M30
