%TF.GenerationSoftware,KiCad,Pcbnew,8.0.3*%
%TF.CreationDate,2025-05-21T19:02:48+05:45*%
%TF.ProjectId,STM32_pcb_design,53544d33-325f-4706-9362-5f6465736967,rev?*%
%TF.SameCoordinates,Original*%
%TF.FileFunction,Paste,Top*%
%TF.FilePolarity,Positive*%
%FSLAX46Y46*%
G04 Gerber Fmt 4.6, Leading zero omitted, Abs format (unit mm)*
G04 Created by KiCad (PCBNEW 8.0.3) date 2025-05-21 19:02:48*
%MOMM*%
%LPD*%
G01*
G04 APERTURE LIST*
G04 Aperture macros list*
%AMRoundRect*
0 Rectangle with rounded corners*
0 $1 Rounding radius*
0 $2 $3 $4 $5 $6 $7 $8 $9 X,Y pos of 4 corners*
0 Add a 4 corners polygon primitive as box body*
4,1,4,$2,$3,$4,$5,$6,$7,$8,$9,$2,$3,0*
0 Add four circle primitives for the rounded corners*
1,1,$1+$1,$2,$3*
1,1,$1+$1,$4,$5*
1,1,$1+$1,$6,$7*
1,1,$1+$1,$8,$9*
0 Add four rect primitives between the rounded corners*
20,1,$1+$1,$2,$3,$4,$5,0*
20,1,$1+$1,$4,$5,$6,$7,0*
20,1,$1+$1,$6,$7,$8,$9,0*
20,1,$1+$1,$8,$9,$2,$3,0*%
G04 Aperture macros list end*
%ADD10RoundRect,0.140000X0.170000X-0.140000X0.170000X0.140000X-0.170000X0.140000X-0.170000X-0.140000X0*%
%ADD11RoundRect,0.135000X0.135000X0.185000X-0.135000X0.185000X-0.135000X-0.185000X0.135000X-0.185000X0*%
%ADD12RoundRect,0.218750X-0.256250X0.218750X-0.256250X-0.218750X0.256250X-0.218750X0.256250X0.218750X0*%
%ADD13RoundRect,0.135000X0.185000X-0.135000X0.185000X0.135000X-0.185000X0.135000X-0.185000X-0.135000X0*%
%ADD14RoundRect,0.140000X0.140000X0.170000X-0.140000X0.170000X-0.140000X-0.170000X0.140000X-0.170000X0*%
%ADD15RoundRect,0.225000X-0.225000X-0.250000X0.225000X-0.250000X0.225000X0.250000X-0.225000X0.250000X0*%
%ADD16RoundRect,0.135000X-0.135000X-0.185000X0.135000X-0.185000X0.135000X0.185000X-0.135000X0.185000X0*%
%ADD17RoundRect,0.250000X0.475000X-0.250000X0.475000X0.250000X-0.475000X0.250000X-0.475000X-0.250000X0*%
%ADD18R,1.200000X1.400000*%
%ADD19RoundRect,0.140000X-0.140000X-0.170000X0.140000X-0.170000X0.140000X0.170000X-0.140000X0.170000X0*%
%ADD20RoundRect,0.135000X-0.185000X0.135000X-0.185000X-0.135000X0.185000X-0.135000X0.185000X0.135000X0*%
%ADD21RoundRect,0.075000X-0.662500X-0.075000X0.662500X-0.075000X0.662500X0.075000X-0.662500X0.075000X0*%
%ADD22RoundRect,0.075000X-0.075000X-0.662500X0.075000X-0.662500X0.075000X0.662500X-0.075000X0.662500X0*%
%ADD23R,1.300000X0.450000*%
%ADD24RoundRect,0.250000X-0.250000X-0.475000X0.250000X-0.475000X0.250000X0.475000X-0.250000X0.475000X0*%
%ADD25R,0.800000X1.000000*%
%ADD26R,1.500000X0.700000*%
%ADD27RoundRect,0.140000X-0.170000X0.140000X-0.170000X-0.140000X0.170000X-0.140000X0.170000X0.140000X0*%
%ADD28RoundRect,0.375000X-0.375000X0.625000X-0.375000X-0.625000X0.375000X-0.625000X0.375000X0.625000X0*%
%ADD29RoundRect,0.500000X-1.400000X0.500000X-1.400000X-0.500000X1.400000X-0.500000X1.400000X0.500000X0*%
G04 APERTURE END LIST*
D10*
%TO.C,C4*%
X92750000Y-90730000D03*
X92750000Y-89770000D03*
%TD*%
D11*
%TO.C,R4*%
X96995000Y-103725000D03*
X95975000Y-103725000D03*
%TD*%
D12*
%TO.C,FB1*%
X94000000Y-97962500D03*
X94000000Y-99537500D03*
%TD*%
D10*
%TO.C,C13*%
X91140000Y-93975000D03*
X91140000Y-93015000D03*
%TD*%
D13*
%TO.C,R2*%
X86600000Y-86385000D03*
X86600000Y-85365000D03*
%TD*%
D12*
%TO.C,D1*%
X116250000Y-100212500D03*
X116250000Y-101787500D03*
%TD*%
D10*
%TO.C,C12*%
X91140000Y-91995000D03*
X91140000Y-91035000D03*
%TD*%
D14*
%TO.C,C5*%
X102080000Y-99575000D03*
X101120000Y-99575000D03*
%TD*%
D15*
%TO.C,C3*%
X95475000Y-86000000D03*
X97025000Y-86000000D03*
%TD*%
D16*
%TO.C,R1*%
X116240000Y-98750000D03*
X117260000Y-98750000D03*
%TD*%
D17*
%TO.C,C2*%
X113000000Y-101650000D03*
X113000000Y-99750000D03*
%TD*%
D10*
%TO.C,C8*%
X92750000Y-94980000D03*
X92750000Y-94020000D03*
%TD*%
D18*
%TO.C,Y1*%
X87790000Y-91145000D03*
X87790000Y-93345000D03*
X89490000Y-93345000D03*
X89490000Y-91145000D03*
%TD*%
D14*
%TO.C,C9*%
X92730000Y-98000000D03*
X91770000Y-98000000D03*
%TD*%
D19*
%TO.C,C7*%
X95770000Y-87500000D03*
X96730000Y-87500000D03*
%TD*%
%TO.C,C11*%
X96020000Y-99500000D03*
X96980000Y-99500000D03*
%TD*%
D20*
%TO.C,R3*%
X108025000Y-91090000D03*
X108025000Y-92110000D03*
%TD*%
D21*
%TO.C,U2*%
X94587500Y-90750000D03*
X94587500Y-91250000D03*
X94587500Y-91750000D03*
X94587500Y-92250000D03*
X94587500Y-92750000D03*
X94587500Y-93250000D03*
X94587500Y-93750000D03*
X94587500Y-94250000D03*
X94587500Y-94750000D03*
X94587500Y-95250000D03*
X94587500Y-95750000D03*
X94587500Y-96250000D03*
D22*
X96000000Y-97662500D03*
X96500000Y-97662500D03*
X97000000Y-97662500D03*
X97500000Y-97662500D03*
X98000000Y-97662500D03*
X98500000Y-97662500D03*
X99000000Y-97662500D03*
X99500000Y-97662500D03*
X100000000Y-97662500D03*
X100500000Y-97662500D03*
X101000000Y-97662500D03*
X101500000Y-97662500D03*
D21*
X102912500Y-96250000D03*
X102912500Y-95750000D03*
X102912500Y-95250000D03*
X102912500Y-94750000D03*
X102912500Y-94250000D03*
X102912500Y-93750000D03*
X102912500Y-93250000D03*
X102912500Y-92750000D03*
X102912500Y-92250000D03*
X102912500Y-91750000D03*
X102912500Y-91250000D03*
X102912500Y-90750000D03*
D22*
X101500000Y-89337500D03*
X101000000Y-89337500D03*
X100500000Y-89337500D03*
X100000000Y-89337500D03*
X99500000Y-89337500D03*
X99000000Y-89337500D03*
X98500000Y-89337500D03*
X98000000Y-89337500D03*
X97500000Y-89337500D03*
X97000000Y-89337500D03*
X96500000Y-89337500D03*
X96000000Y-89337500D03*
%TD*%
D14*
%TO.C,C10*%
X92730000Y-99500000D03*
X91770000Y-99500000D03*
%TD*%
D23*
%TO.C,J1*%
X115625000Y-93450000D03*
X115625000Y-92800000D03*
X115625000Y-92150000D03*
X115625000Y-91500000D03*
X115625000Y-90850000D03*
%TD*%
D24*
%TO.C,C1*%
X107300000Y-95500000D03*
X109200000Y-95500000D03*
%TD*%
D16*
%TO.C,R5*%
X98225000Y-103725000D03*
X99245000Y-103725000D03*
%TD*%
D25*
%TO.C,SW1*%
X83955000Y-84925000D03*
X81745000Y-84925000D03*
X83955000Y-92225000D03*
X81745000Y-92225000D03*
D26*
X84605000Y-86325000D03*
X84605000Y-89325000D03*
X84605000Y-90825000D03*
%TD*%
D27*
%TO.C,C6*%
X104750000Y-90520000D03*
X104750000Y-91480000D03*
%TD*%
D28*
%TO.C,U1*%
X105950000Y-97850000D03*
D29*
X108250000Y-104150000D03*
D28*
X108250000Y-97850000D03*
X110550000Y-97850000D03*
%TD*%
M02*
