%TF.GenerationSoftware,KiCad,Pcbnew,8.0.3*%
%TF.CreationDate,2025-05-21T19:02:48+05:45*%
%TF.ProjectId,STM32_pcb_design,53544d33-325f-4706-9362-5f6465736967,rev?*%
%TF.SameCoordinates,Original*%
%TF.FileFunction,Copper,L1,Top*%
%TF.FilePolarity,Positive*%
%FSLAX46Y46*%
G04 Gerber Fmt 4.6, Leading zero omitted, Abs format (unit mm)*
G04 Created by KiCad (PCBNEW 8.0.3) date 2025-05-21 19:02:48*
%MOMM*%
%LPD*%
G01*
G04 APERTURE LIST*
G04 Aperture macros list*
%AMRoundRect*
0 Rectangle with rounded corners*
0 $1 Rounding radius*
0 $2 $3 $4 $5 $6 $7 $8 $9 X,Y pos of 4 corners*
0 Add a 4 corners polygon primitive as box body*
4,1,4,$2,$3,$4,$5,$6,$7,$8,$9,$2,$3,0*
0 Add four circle primitives for the rounded corners*
1,1,$1+$1,$2,$3*
1,1,$1+$1,$4,$5*
1,1,$1+$1,$6,$7*
1,1,$1+$1,$8,$9*
0 Add four rect primitives between the rounded corners*
20,1,$1+$1,$2,$3,$4,$5,0*
20,1,$1+$1,$4,$5,$6,$7,0*
20,1,$1+$1,$6,$7,$8,$9,0*
20,1,$1+$1,$8,$9,$2,$3,0*%
G04 Aperture macros list end*
%TA.AperFunction,SMDPad,CuDef*%
%ADD10RoundRect,0.140000X0.170000X-0.140000X0.170000X0.140000X-0.170000X0.140000X-0.170000X-0.140000X0*%
%TD*%
%TA.AperFunction,ComponentPad*%
%ADD11R,1.700000X1.700000*%
%TD*%
%TA.AperFunction,ComponentPad*%
%ADD12O,1.700000X1.700000*%
%TD*%
%TA.AperFunction,SMDPad,CuDef*%
%ADD13RoundRect,0.135000X0.135000X0.185000X-0.135000X0.185000X-0.135000X-0.185000X0.135000X-0.185000X0*%
%TD*%
%TA.AperFunction,SMDPad,CuDef*%
%ADD14RoundRect,0.218750X-0.256250X0.218750X-0.256250X-0.218750X0.256250X-0.218750X0.256250X0.218750X0*%
%TD*%
%TA.AperFunction,SMDPad,CuDef*%
%ADD15RoundRect,0.135000X0.185000X-0.135000X0.185000X0.135000X-0.185000X0.135000X-0.185000X-0.135000X0*%
%TD*%
%TA.AperFunction,SMDPad,CuDef*%
%ADD16RoundRect,0.140000X0.140000X0.170000X-0.140000X0.170000X-0.140000X-0.170000X0.140000X-0.170000X0*%
%TD*%
%TA.AperFunction,SMDPad,CuDef*%
%ADD17RoundRect,0.225000X-0.225000X-0.250000X0.225000X-0.250000X0.225000X0.250000X-0.225000X0.250000X0*%
%TD*%
%TA.AperFunction,SMDPad,CuDef*%
%ADD18RoundRect,0.135000X-0.135000X-0.185000X0.135000X-0.185000X0.135000X0.185000X-0.135000X0.185000X0*%
%TD*%
%TA.AperFunction,SMDPad,CuDef*%
%ADD19RoundRect,0.250000X0.475000X-0.250000X0.475000X0.250000X-0.475000X0.250000X-0.475000X-0.250000X0*%
%TD*%
%TA.AperFunction,SMDPad,CuDef*%
%ADD20R,1.200000X1.400000*%
%TD*%
%TA.AperFunction,SMDPad,CuDef*%
%ADD21RoundRect,0.140000X-0.140000X-0.170000X0.140000X-0.170000X0.140000X0.170000X-0.140000X0.170000X0*%
%TD*%
%TA.AperFunction,SMDPad,CuDef*%
%ADD22RoundRect,0.135000X-0.185000X0.135000X-0.185000X-0.135000X0.185000X-0.135000X0.185000X0.135000X0*%
%TD*%
%TA.AperFunction,SMDPad,CuDef*%
%ADD23RoundRect,0.075000X-0.662500X-0.075000X0.662500X-0.075000X0.662500X0.075000X-0.662500X0.075000X0*%
%TD*%
%TA.AperFunction,SMDPad,CuDef*%
%ADD24RoundRect,0.075000X-0.075000X-0.662500X0.075000X-0.662500X0.075000X0.662500X-0.075000X0.662500X0*%
%TD*%
%TA.AperFunction,SMDPad,CuDef*%
%ADD25R,1.300000X0.450000*%
%TD*%
%TA.AperFunction,ComponentPad*%
%ADD26O,1.800000X1.150000*%
%TD*%
%TA.AperFunction,ComponentPad*%
%ADD27O,2.000000X1.450000*%
%TD*%
%TA.AperFunction,SMDPad,CuDef*%
%ADD28RoundRect,0.250000X-0.250000X-0.475000X0.250000X-0.475000X0.250000X0.475000X-0.250000X0.475000X0*%
%TD*%
%TA.AperFunction,SMDPad,CuDef*%
%ADD29R,0.800000X1.000000*%
%TD*%
%TA.AperFunction,SMDPad,CuDef*%
%ADD30R,1.500000X0.700000*%
%TD*%
%TA.AperFunction,SMDPad,CuDef*%
%ADD31RoundRect,0.140000X-0.170000X0.140000X-0.170000X-0.140000X0.170000X-0.140000X0.170000X0.140000X0*%
%TD*%
%TA.AperFunction,SMDPad,CuDef*%
%ADD32RoundRect,0.375000X-0.375000X0.625000X-0.375000X-0.625000X0.375000X-0.625000X0.375000X0.625000X0*%
%TD*%
%TA.AperFunction,SMDPad,CuDef*%
%ADD33RoundRect,0.500000X-1.400000X0.500000X-1.400000X-0.500000X1.400000X-0.500000X1.400000X0.500000X0*%
%TD*%
%TA.AperFunction,ViaPad*%
%ADD34C,0.700000*%
%TD*%
%TA.AperFunction,Conductor*%
%ADD35C,0.500000*%
%TD*%
%TA.AperFunction,Conductor*%
%ADD36C,0.300000*%
%TD*%
%TA.AperFunction,Conductor*%
%ADD37C,0.200000*%
%TD*%
G04 APERTURE END LIST*
D10*
%TO.P,C4,1*%
%TO.N,+3.3V*%
X92750000Y-90730000D03*
%TO.P,C4,2*%
%TO.N,GND*%
X92750000Y-89770000D03*
%TD*%
D11*
%TO.P,J4,1,Pin_1*%
%TO.N,+3.3V*%
X94375000Y-107000000D03*
D12*
%TO.P,J4,2,Pin_2*%
%TO.N,/I2C2_SCL*%
X96915000Y-107000000D03*
%TO.P,J4,3,Pin_3*%
%TO.N,/I2C2_SDA*%
X99455000Y-107000000D03*
%TO.P,J4,4,Pin_4*%
%TO.N,GND*%
X101995000Y-107000000D03*
%TD*%
D13*
%TO.P,R4,1*%
%TO.N,+3.3V*%
X96995000Y-103725000D03*
%TO.P,R4,2*%
%TO.N,/I2C2_SCL*%
X95975000Y-103725000D03*
%TD*%
D14*
%TO.P,FB1,1*%
%TO.N,+3.3VA*%
X94000000Y-97962500D03*
%TO.P,FB1,2*%
%TO.N,+3.3V*%
X94000000Y-99537500D03*
%TD*%
D11*
%TO.P,J2,1,Pin_1*%
%TO.N,+3.3V*%
X97800000Y-80750000D03*
D12*
%TO.P,J2,2,Pin_2*%
%TO.N,/USART_TX*%
X95260000Y-80750000D03*
%TO.P,J2,3,Pin_3*%
%TO.N,/USART_RX*%
X92720000Y-80750000D03*
%TO.P,J2,4,Pin_4*%
%TO.N,GND*%
X90180000Y-80750000D03*
%TD*%
D10*
%TO.P,C13,1*%
%TO.N,/HSE_OUT*%
X91140000Y-93975000D03*
%TO.P,C13,2*%
%TO.N,GND*%
X91140000Y-93015000D03*
%TD*%
D15*
%TO.P,R2,1*%
%TO.N,/SW_BOOT0*%
X86600000Y-86385000D03*
%TO.P,R2,2*%
%TO.N,/BOOT0*%
X86600000Y-85365000D03*
%TD*%
D14*
%TO.P,D1,1,K*%
%TO.N,/PWR_LED_K*%
X116250000Y-100212500D03*
%TO.P,D1,2,A*%
%TO.N,+3.3V*%
X116250000Y-101787500D03*
%TD*%
D10*
%TO.P,C12,1*%
%TO.N,/HSE_IN*%
X91140000Y-91995000D03*
%TO.P,C12,2*%
%TO.N,GND*%
X91140000Y-91035000D03*
%TD*%
D16*
%TO.P,C5,1*%
%TO.N,+3.3V*%
X102080000Y-99575000D03*
%TO.P,C5,2*%
%TO.N,GND*%
X101120000Y-99575000D03*
%TD*%
D17*
%TO.P,C3,1*%
%TO.N,+3.3V*%
X95475000Y-86000000D03*
%TO.P,C3,2*%
%TO.N,GND*%
X97025000Y-86000000D03*
%TD*%
D18*
%TO.P,R1,1*%
%TO.N,/PWR_LED_K*%
X116240000Y-98750000D03*
%TO.P,R1,2*%
%TO.N,GND*%
X117260000Y-98750000D03*
%TD*%
D19*
%TO.P,C2,1*%
%TO.N,+3.3V*%
X113000000Y-101650000D03*
%TO.P,C2,2*%
%TO.N,GND*%
X113000000Y-99750000D03*
%TD*%
D10*
%TO.P,C8,1*%
%TO.N,+3.3VA*%
X92750000Y-94980000D03*
%TO.P,C8,2*%
%TO.N,GND*%
X92750000Y-94020000D03*
%TD*%
D20*
%TO.P,Y1,1,1*%
%TO.N,/HSE_IN*%
X87790000Y-91145000D03*
%TO.P,Y1,2,2*%
%TO.N,GND*%
X87790000Y-93345000D03*
%TO.P,Y1,3,3*%
%TO.N,/HSE_OUT*%
X89490000Y-93345000D03*
%TO.P,Y1,4,4*%
%TO.N,GND*%
X89490000Y-91145000D03*
%TD*%
D11*
%TO.P,J3,1,Pin_1*%
%TO.N,+3.3V*%
X111800000Y-80750000D03*
D12*
%TO.P,J3,2,Pin_2*%
%TO.N,/SWDIO*%
X109260000Y-80750000D03*
%TO.P,J3,3,Pin_3*%
%TO.N,/SWCLK*%
X106720000Y-80750000D03*
%TO.P,J3,4,Pin_4*%
%TO.N,GND*%
X104180000Y-80750000D03*
%TD*%
D16*
%TO.P,C9,1*%
%TO.N,+3.3VA*%
X92730000Y-98000000D03*
%TO.P,C9,2*%
%TO.N,GND*%
X91770000Y-98000000D03*
%TD*%
D21*
%TO.P,C7,1*%
%TO.N,+3.3V*%
X95770000Y-87500000D03*
%TO.P,C7,2*%
%TO.N,GND*%
X96730000Y-87500000D03*
%TD*%
%TO.P,C11,1*%
%TO.N,/NRST*%
X96020000Y-99500000D03*
%TO.P,C11,2*%
%TO.N,GND*%
X96980000Y-99500000D03*
%TD*%
D22*
%TO.P,R3,1*%
%TO.N,+3.3V*%
X108025000Y-91090000D03*
%TO.P,R3,2*%
%TO.N,/USB_D+*%
X108025000Y-92110000D03*
%TD*%
D23*
%TO.P,U2,1,VBAT*%
%TO.N,+3.3V*%
X94587500Y-90750000D03*
%TO.P,U2,2,PC13*%
%TO.N,unconnected-(U2-PC13-Pad2)*%
X94587500Y-91250000D03*
%TO.P,U2,3,PC14*%
%TO.N,unconnected-(U2-PC14-Pad3)*%
X94587500Y-91750000D03*
%TO.P,U2,4,PC15*%
%TO.N,unconnected-(U2-PC15-Pad4)*%
X94587500Y-92250000D03*
%TO.P,U2,5,PD0*%
%TO.N,/HSE_IN*%
X94587500Y-92750000D03*
%TO.P,U2,6,PD1*%
%TO.N,/HSE_OUT*%
X94587500Y-93250000D03*
%TO.P,U2,7,NRST*%
%TO.N,/NRST*%
X94587500Y-93750000D03*
%TO.P,U2,8,VSSA*%
%TO.N,GND*%
X94587500Y-94250000D03*
%TO.P,U2,9,VDDA*%
%TO.N,+3.3VA*%
X94587500Y-94750000D03*
%TO.P,U2,10,PA0*%
%TO.N,unconnected-(U2-PA0-Pad10)*%
X94587500Y-95250000D03*
%TO.P,U2,11,PA1*%
%TO.N,unconnected-(U2-PA1-Pad11)*%
X94587500Y-95750000D03*
%TO.P,U2,12,PA2*%
%TO.N,unconnected-(U2-PA2-Pad12)*%
X94587500Y-96250000D03*
D24*
%TO.P,U2,13,PA3*%
%TO.N,unconnected-(U2-PA3-Pad13)*%
X96000000Y-97662500D03*
%TO.P,U2,14,PA4*%
%TO.N,unconnected-(U2-PA4-Pad14)*%
X96500000Y-97662500D03*
%TO.P,U2,15,PA5*%
%TO.N,unconnected-(U2-PA5-Pad15)*%
X97000000Y-97662500D03*
%TO.P,U2,16,PA6*%
%TO.N,unconnected-(U2-PA6-Pad16)*%
X97500000Y-97662500D03*
%TO.P,U2,17,PA7*%
%TO.N,unconnected-(U2-PA7-Pad17)*%
X98000000Y-97662500D03*
%TO.P,U2,18,PB0*%
%TO.N,unconnected-(U2-PB0-Pad18)*%
X98500000Y-97662500D03*
%TO.P,U2,19,PB1*%
%TO.N,unconnected-(U2-PB1-Pad19)*%
X99000000Y-97662500D03*
%TO.P,U2,20,PB2*%
%TO.N,unconnected-(U2-PB2-Pad20)*%
X99500000Y-97662500D03*
%TO.P,U2,21,PB10*%
%TO.N,/I2C2_SCL*%
X100000000Y-97662500D03*
%TO.P,U2,22,PB11*%
%TO.N,/I2C2_SDA*%
X100500000Y-97662500D03*
%TO.P,U2,23,VSS*%
%TO.N,GND*%
X101000000Y-97662500D03*
%TO.P,U2,24,VDD*%
%TO.N,+3.3V*%
X101500000Y-97662500D03*
D23*
%TO.P,U2,25,PB12*%
%TO.N,unconnected-(U2-PB12-Pad25)*%
X102912500Y-96250000D03*
%TO.P,U2,26,PB13*%
%TO.N,unconnected-(U2-PB13-Pad26)*%
X102912500Y-95750000D03*
%TO.P,U2,27,PB14*%
%TO.N,unconnected-(U2-PB14-Pad27)*%
X102912500Y-95250000D03*
%TO.P,U2,28,PB15*%
%TO.N,unconnected-(U2-PB15-Pad28)*%
X102912500Y-94750000D03*
%TO.P,U2,29,PA8*%
%TO.N,unconnected-(U2-PA8-Pad29)*%
X102912500Y-94250000D03*
%TO.P,U2,30,PA9*%
%TO.N,unconnected-(U2-PA9-Pad30)*%
X102912500Y-93750000D03*
%TO.P,U2,31,PA10*%
%TO.N,unconnected-(U2-PA10-Pad31)*%
X102912500Y-93250000D03*
%TO.P,U2,32,PA11*%
%TO.N,/USB_D-*%
X102912500Y-92750000D03*
%TO.P,U2,33,PA12*%
%TO.N,/USB_D+*%
X102912500Y-92250000D03*
%TO.P,U2,34,PA13*%
%TO.N,/SWDIO*%
X102912500Y-91750000D03*
%TO.P,U2,35,VSS*%
%TO.N,GND*%
X102912500Y-91250000D03*
%TO.P,U2,36,VDD*%
%TO.N,+3.3V*%
X102912500Y-90750000D03*
D24*
%TO.P,U2,37,PA14*%
%TO.N,/SWCLK*%
X101500000Y-89337500D03*
%TO.P,U2,38,PA15*%
%TO.N,unconnected-(U2-PA15-Pad38)*%
X101000000Y-89337500D03*
%TO.P,U2,39,PB3*%
%TO.N,unconnected-(U2-PB3-Pad39)*%
X100500000Y-89337500D03*
%TO.P,U2,40,PB4*%
%TO.N,unconnected-(U2-PB4-Pad40)*%
X100000000Y-89337500D03*
%TO.P,U2,41,PB5*%
%TO.N,unconnected-(U2-PB5-Pad41)*%
X99500000Y-89337500D03*
%TO.P,U2,42,PB6*%
%TO.N,/USART_TX*%
X99000000Y-89337500D03*
%TO.P,U2,43,PB7*%
%TO.N,/USART_RX*%
X98500000Y-89337500D03*
%TO.P,U2,44,BOOT0*%
%TO.N,/BOOT0*%
X98000000Y-89337500D03*
%TO.P,U2,45,PB8*%
%TO.N,unconnected-(U2-PB8-Pad45)*%
X97500000Y-89337500D03*
%TO.P,U2,46,PB9*%
%TO.N,unconnected-(U2-PB9-Pad46)*%
X97000000Y-89337500D03*
%TO.P,U2,47,VSS*%
%TO.N,GND*%
X96500000Y-89337500D03*
%TO.P,U2,48,VDD*%
%TO.N,+3.3V*%
X96000000Y-89337500D03*
%TD*%
D16*
%TO.P,C10,1*%
%TO.N,+3.3V*%
X92730000Y-99500000D03*
%TO.P,C10,2*%
%TO.N,GND*%
X91770000Y-99500000D03*
%TD*%
D25*
%TO.P,J1,1,VBUS*%
%TO.N,VBUS*%
X115625000Y-93450000D03*
%TO.P,J1,2,D-*%
%TO.N,/USB_D-*%
X115625000Y-92800000D03*
%TO.P,J1,3,D+*%
%TO.N,/USB_D+*%
X115625000Y-92150000D03*
%TO.P,J1,4,ID*%
%TO.N,unconnected-(J1-ID-Pad4)*%
X115625000Y-91500000D03*
%TO.P,J1,5,GND*%
%TO.N,GND*%
X115625000Y-90850000D03*
D26*
%TO.P,J1,6,Shield*%
%TO.N,unconnected-(J1-Shield-Pad6)_2*%
X119475000Y-96025000D03*
D27*
%TO.N,unconnected-(J1-Shield-Pad6)_0*%
X115675000Y-95875000D03*
%TO.N,unconnected-(J1-Shield-Pad6)*%
X115675000Y-88425000D03*
D26*
%TO.N,unconnected-(J1-Shield-Pad6)_1*%
X119475000Y-88275000D03*
%TD*%
D28*
%TO.P,C1,1*%
%TO.N,VBUS*%
X107300000Y-95500000D03*
%TO.P,C1,2*%
%TO.N,GND*%
X109200000Y-95500000D03*
%TD*%
D18*
%TO.P,R5,1*%
%TO.N,+3.3V*%
X98225000Y-103725000D03*
%TO.P,R5,2*%
%TO.N,/I2C2_SDA*%
X99245000Y-103725000D03*
%TD*%
D29*
%TO.P,SW1,*%
%TO.N,*%
X83955000Y-84925000D03*
X81745000Y-84925000D03*
X83955000Y-92225000D03*
X81745000Y-92225000D03*
D30*
%TO.P,SW1,1,A*%
%TO.N,GND*%
X84605000Y-86325000D03*
%TO.P,SW1,2,B*%
%TO.N,/SW_BOOT0*%
X84605000Y-89325000D03*
%TO.P,SW1,3,C*%
%TO.N,+3.3V*%
X84605000Y-90825000D03*
%TD*%
D31*
%TO.P,C6,1*%
%TO.N,+3.3V*%
X104750000Y-90520000D03*
%TO.P,C6,2*%
%TO.N,GND*%
X104750000Y-91480000D03*
%TD*%
D32*
%TO.P,U1,3,VI*%
%TO.N,VBUS*%
X105950000Y-97850000D03*
D33*
%TO.P,U1,2,VO*%
%TO.N,+3.3V*%
X108250000Y-104150000D03*
D32*
X108250000Y-97850000D03*
%TO.P,U1,1,GND*%
%TO.N,GND*%
X110550000Y-97850000D03*
%TD*%
D34*
%TO.N,GND*%
X97925000Y-99325000D03*
%TO.N,+3.3V*%
X117625000Y-97450000D03*
X117900000Y-99925000D03*
%TO.N,GND*%
X87775000Y-94525000D03*
X89500000Y-89850000D03*
%TO.N,+3.3V*%
X96712500Y-104787500D03*
X95275000Y-104825000D03*
X98225226Y-102199774D03*
X100125000Y-102200000D03*
%TO.N,GND*%
X114150000Y-99750000D03*
X110375000Y-99225000D03*
X111300000Y-99225000D03*
X110400000Y-95950000D03*
X110400000Y-95025000D03*
X114200000Y-90800000D03*
X91150000Y-90225000D03*
X85050000Y-85450000D03*
X92016359Y-92700495D03*
X92750000Y-88950000D03*
X105725000Y-91550000D03*
X96250000Y-94600000D03*
X96500000Y-90650000D03*
X101000000Y-96350000D03*
X91775000Y-100275000D03*
X91775000Y-97225000D03*
X118075000Y-98775000D03*
%TD*%
D35*
%TO.N,+3.3V*%
X98225000Y-102200000D02*
X98225000Y-103725000D01*
X98225226Y-102199774D02*
X98225000Y-102200000D01*
X104025000Y-102200000D02*
X100125000Y-102200000D01*
D36*
%TO.N,GND*%
X114250000Y-90850000D02*
X115625000Y-90850000D01*
X114200000Y-90800000D02*
X114250000Y-90850000D01*
D35*
X97750000Y-99500000D02*
X97925000Y-99325000D01*
X96980000Y-99500000D02*
X97750000Y-99500000D01*
%TO.N,+3.3V*%
X110275000Y-79225000D02*
X99325000Y-79225000D01*
X99325000Y-79225000D02*
X97800000Y-80750000D01*
X111800000Y-80750000D02*
X110275000Y-79225000D01*
X106345000Y-90520000D02*
X104750000Y-90520000D01*
X106350000Y-90525000D02*
X106345000Y-90520000D01*
X107215000Y-91090000D02*
X106650000Y-90525000D01*
X108025000Y-91090000D02*
X107215000Y-91090000D01*
X106650000Y-90525000D02*
X106350000Y-90525000D01*
X114880851Y-85694149D02*
X111800000Y-82613299D01*
X114880851Y-85694149D02*
X109475000Y-91100000D01*
X117625000Y-88438299D02*
X114880851Y-85694149D01*
X109475000Y-91100000D02*
X109465000Y-91090000D01*
X109465000Y-91090000D02*
X108025000Y-91090000D01*
X111800000Y-82613299D02*
X111800000Y-80750000D01*
X117625000Y-97450000D02*
X117625000Y-88438299D01*
X117825000Y-102625000D02*
X117825000Y-100000000D01*
X116775000Y-103675000D02*
X117825000Y-102625000D01*
X117825000Y-100000000D02*
X117900000Y-99925000D01*
X114825000Y-103675000D02*
X116775000Y-103675000D01*
X114825000Y-103675000D02*
X114825000Y-106850000D01*
X114825000Y-101650000D02*
X114825000Y-103675000D01*
%TO.N,/PWR_LED_K*%
X116250000Y-98760000D02*
X116240000Y-98750000D01*
X116250000Y-100212500D02*
X116250000Y-98760000D01*
%TO.N,GND*%
X87790000Y-94510000D02*
X87775000Y-94525000D01*
X87790000Y-93345000D02*
X87790000Y-94510000D01*
X89490000Y-89860000D02*
X89500000Y-89850000D01*
X89490000Y-91145000D02*
X89490000Y-89860000D01*
%TO.N,+3.3VA*%
X92730000Y-95000000D02*
X92750000Y-94980000D01*
X92730000Y-98000000D02*
X92730000Y-95000000D01*
X92767500Y-97962500D02*
X92730000Y-98000000D01*
X94000000Y-97962500D02*
X92767500Y-97962500D01*
%TO.N,+3.3V*%
X94000000Y-104800000D02*
X93975000Y-104825000D01*
X93975000Y-104825000D02*
X89975000Y-104825000D01*
X94375000Y-104825000D02*
X93975000Y-104825000D01*
X94000000Y-99537500D02*
X94000000Y-104800000D01*
X93962500Y-99500000D02*
X94000000Y-99537500D01*
X92730000Y-99500000D02*
X93962500Y-99500000D01*
X93625000Y-86000000D02*
X93625000Y-87650000D01*
X93625000Y-87650000D02*
X94587500Y-88612500D01*
X93625000Y-86000000D02*
X95475000Y-86000000D01*
X94587500Y-88612500D02*
X94587500Y-90650000D01*
X89625000Y-86000000D02*
X93625000Y-86000000D01*
X86075000Y-90825000D02*
X86150000Y-90900000D01*
X86150000Y-90900000D02*
X86150000Y-89475000D01*
X84605000Y-90825000D02*
X86075000Y-90825000D01*
X86150000Y-101000000D02*
X86150000Y-90900000D01*
X89975000Y-104825000D02*
X86150000Y-101000000D01*
X86150000Y-89475000D02*
X89625000Y-86000000D01*
D36*
%TO.N,/SW_BOOT0*%
X84605000Y-88045000D02*
X84605000Y-89325000D01*
X86300000Y-87400000D02*
X85250000Y-87400000D01*
X86600000Y-87100000D02*
X86300000Y-87400000D01*
X85250000Y-87400000D02*
X84605000Y-88045000D01*
X86600000Y-86385000D02*
X86600000Y-87100000D01*
X86600000Y-86385000D02*
X86565000Y-86385000D01*
%TO.N,/BOOT0*%
X86600000Y-84550000D02*
X86600000Y-85365000D01*
X87025000Y-84125000D02*
X86600000Y-84550000D01*
X97300000Y-84125000D02*
X87025000Y-84125000D01*
X98000000Y-84825000D02*
X97300000Y-84125000D01*
X98000000Y-89337500D02*
X98000000Y-84825000D01*
D35*
%TO.N,+3.3V*%
X94375000Y-104825000D02*
X94375000Y-107000000D01*
X95275000Y-104825000D02*
X94375000Y-104825000D01*
X96712500Y-104787500D02*
X96995000Y-104505000D01*
X96995000Y-104505000D02*
X96995000Y-103725000D01*
D36*
%TO.N,/I2C2_SCL*%
X96915000Y-106490000D02*
X96915000Y-107000000D01*
X95975000Y-105550000D02*
X96915000Y-106490000D01*
X95975000Y-103725000D02*
X95975000Y-105550000D01*
D35*
%TO.N,+3.3V*%
X98225000Y-103725000D02*
X96995000Y-103725000D01*
X104025000Y-102200000D02*
X104025000Y-100875000D01*
X104025000Y-105700000D02*
X104025000Y-102200000D01*
D36*
%TO.N,/I2C2_SDA*%
X99245000Y-102255000D02*
X99245000Y-103725000D01*
X99250000Y-100438154D02*
X99250000Y-102250000D01*
X99250000Y-102250000D02*
X99245000Y-102255000D01*
X100500000Y-97662500D02*
X100500000Y-99188154D01*
X100500000Y-99188154D02*
X99250000Y-100438154D01*
D35*
%TO.N,+3.3V*%
X113675000Y-108000000D02*
X106325000Y-108000000D01*
X106325000Y-108000000D02*
X104025000Y-105700000D01*
X104025000Y-100875000D02*
X102725000Y-99575000D01*
X114825000Y-106850000D02*
X113675000Y-108000000D01*
X102725000Y-99575000D02*
X102080000Y-99575000D01*
X114825000Y-101650000D02*
X116112500Y-101650000D01*
X113000000Y-101650000D02*
X114825000Y-101650000D01*
X116112500Y-101650000D02*
X116250000Y-101787500D01*
D36*
%TO.N,/NRST*%
X95200000Y-98680000D02*
X96020000Y-99500000D01*
X95200000Y-96978120D02*
X95200000Y-98680000D01*
X96975000Y-95203120D02*
X95200000Y-96978120D01*
X96975000Y-94335050D02*
X96975000Y-95203120D01*
X96389950Y-93750000D02*
X96975000Y-94335050D01*
X94587500Y-93750000D02*
X96389950Y-93750000D01*
%TO.N,GND*%
X96250000Y-94600000D02*
X95900000Y-94250000D01*
X95900000Y-94250000D02*
X94587500Y-94250000D01*
D35*
X91140000Y-90235000D02*
X91150000Y-90225000D01*
D36*
X96730000Y-88266880D02*
X96730000Y-87500000D01*
D35*
X85025000Y-86325000D02*
X85050000Y-86350000D01*
D36*
X96500000Y-89337500D02*
X96500000Y-88496880D01*
X104750000Y-91480000D02*
X105655000Y-91480000D01*
D35*
X96730000Y-86770000D02*
X96730000Y-87500000D01*
D36*
X93746880Y-94250000D02*
X93516880Y-94020000D01*
X101000000Y-97662500D02*
X101000000Y-99530000D01*
X96500000Y-89337500D02*
X96500000Y-90650000D01*
D35*
X85050000Y-86350000D02*
X85050000Y-85450000D01*
D36*
X105655000Y-91480000D02*
X105725000Y-91550000D01*
D35*
X97025000Y-86000000D02*
X97025000Y-86475000D01*
X91770000Y-99500000D02*
X91770000Y-100270000D01*
X84605000Y-86325000D02*
X85025000Y-86325000D01*
X91140000Y-91035000D02*
X91140000Y-90235000D01*
X117260000Y-98750000D02*
X118050000Y-98750000D01*
X91770000Y-98000000D02*
X91770000Y-97230000D01*
D36*
X93516880Y-94020000D02*
X92750000Y-94020000D01*
X96500000Y-88496880D02*
X96730000Y-88266880D01*
X101000000Y-99530000D02*
X101045000Y-99575000D01*
D35*
X97025000Y-86475000D02*
X96730000Y-86770000D01*
X92750000Y-89770000D02*
X92750000Y-88950000D01*
X91770000Y-100270000D02*
X91775000Y-100275000D01*
X91770000Y-97230000D02*
X91775000Y-97225000D01*
X91140000Y-93015000D02*
X91701854Y-93015000D01*
D36*
X103800000Y-91250000D02*
X104030000Y-91480000D01*
D35*
X91701854Y-93015000D02*
X92016359Y-92700495D01*
D36*
X101000000Y-97662500D02*
X101000000Y-96350000D01*
X94587500Y-94250000D02*
X93746880Y-94250000D01*
X102912500Y-91250000D02*
X103800000Y-91250000D01*
D35*
X118050000Y-98750000D02*
X118075000Y-98775000D01*
D36*
X104030000Y-91480000D02*
X104750000Y-91480000D01*
%TO.N,+3.3V*%
X96000000Y-89337500D02*
X96000000Y-88500000D01*
D35*
X95770000Y-86770000D02*
X95770000Y-87500000D01*
D36*
X96000000Y-88500000D02*
X95770000Y-88270000D01*
X92770000Y-90750000D02*
X92750000Y-90730000D01*
X103930000Y-90520000D02*
X104750000Y-90520000D01*
X101500000Y-98475000D02*
X102080000Y-99055000D01*
X103700000Y-90750000D02*
X103930000Y-90520000D01*
D35*
X95475000Y-86000000D02*
X95475000Y-86475000D01*
X95475000Y-86475000D02*
X95770000Y-86770000D01*
D36*
X95770000Y-88270000D02*
X95770000Y-87500000D01*
X94587500Y-90750000D02*
X92770000Y-90750000D01*
X101500000Y-97662500D02*
X101500000Y-98475000D01*
X102080000Y-99055000D02*
X102080000Y-99575000D01*
X102912500Y-90750000D02*
X103700000Y-90750000D01*
%TO.N,+3.3VA*%
X93516880Y-94980000D02*
X92750000Y-94980000D01*
X94587500Y-94750000D02*
X93746880Y-94750000D01*
X93746880Y-94750000D02*
X93516880Y-94980000D01*
%TO.N,/HSE_IN*%
X87790000Y-91445000D02*
X87790000Y-91145000D01*
X92820000Y-91995000D02*
X91140000Y-91995000D01*
X92825000Y-92000000D02*
X92820000Y-91995000D01*
X93000000Y-92000000D02*
X92825000Y-92000000D01*
X94587500Y-92750000D02*
X93746880Y-92750000D01*
X90330000Y-92225000D02*
X88570000Y-92225000D01*
X90560000Y-91995000D02*
X90330000Y-92225000D01*
X93746880Y-92750000D02*
X93000000Y-92003120D01*
X91140000Y-91995000D02*
X90560000Y-91995000D01*
X88570000Y-92225000D02*
X87790000Y-91445000D01*
X93000000Y-92003120D02*
X93000000Y-92000000D01*
%TO.N,/HSE_OUT*%
X90120000Y-93975000D02*
X89490000Y-93345000D01*
X91140000Y-93975000D02*
X90120000Y-93975000D01*
X91725000Y-93975000D02*
X91140000Y-93975000D01*
X92450000Y-93250000D02*
X91725000Y-93975000D01*
X94587500Y-93250000D02*
X92450000Y-93250000D01*
D37*
%TO.N,/USB_D-*%
X114549999Y-92700000D02*
X114649999Y-92800000D01*
X102912500Y-92750000D02*
X102962500Y-92700000D01*
X102962500Y-92700000D02*
X114549999Y-92700000D01*
X114649999Y-92800000D02*
X115625000Y-92800000D01*
%TO.N,/USB_D+*%
X114649999Y-92150000D02*
X115625000Y-92150000D01*
X114549999Y-92250000D02*
X114649999Y-92150000D01*
X102912500Y-92250000D02*
X114549999Y-92250000D01*
D36*
%TO.N,/USART_RX*%
X92725000Y-82050000D02*
X92720000Y-82045000D01*
X98950000Y-84525000D02*
X97750000Y-83325000D01*
X92725000Y-82225000D02*
X92725000Y-82050000D01*
X98500000Y-87700000D02*
X98950000Y-87250000D01*
X97750000Y-83325000D02*
X93850000Y-83325000D01*
X98950000Y-87250000D02*
X98950000Y-85625000D01*
X98950000Y-85625000D02*
X98950000Y-84525000D01*
X93675000Y-83150000D02*
X93650000Y-83150000D01*
X93650000Y-83150000D02*
X92725000Y-82225000D01*
X98500000Y-89337500D02*
X98500000Y-87700000D01*
X92720000Y-82045000D02*
X92720000Y-80750000D01*
X93850000Y-83325000D02*
X93675000Y-83150000D01*
%TO.N,/USART_TX*%
X96100000Y-82550000D02*
X95260000Y-81710000D01*
X95260000Y-81710000D02*
X95260000Y-80750000D01*
X99000000Y-89337500D02*
X99000000Y-88496880D01*
X98675000Y-82550000D02*
X96100000Y-82550000D01*
X99000000Y-88496880D02*
X100125000Y-87371880D01*
X100125000Y-87371880D02*
X100125000Y-84000000D01*
X100125000Y-84000000D02*
X98675000Y-82550000D01*
%TO.N,/SWCLK*%
X106725000Y-82300000D02*
X106720000Y-82295000D01*
X101500000Y-89337500D02*
X101500000Y-87525000D01*
X106720000Y-82295000D02*
X106720000Y-80750000D01*
X101500000Y-87525000D02*
X106725000Y-82300000D01*
%TO.N,/SWDIO*%
X101825000Y-90353120D02*
X109260000Y-82918120D01*
X101825000Y-91503120D02*
X101825000Y-90353120D01*
X109260000Y-82918120D02*
X109260000Y-80750000D01*
X102912500Y-91750000D02*
X102071880Y-91750000D01*
X102071880Y-91750000D02*
X101825000Y-91503120D01*
%TO.N,/I2C2_SDA*%
X99245000Y-105195000D02*
X99455000Y-105405000D01*
X99455000Y-105405000D02*
X99455000Y-107000000D01*
X99245000Y-103725000D02*
X99245000Y-105195000D01*
%TO.N,/I2C2_SCL*%
X100000000Y-97662500D02*
X100000000Y-98625000D01*
X95975000Y-102650000D02*
X95975000Y-103725000D01*
X100000000Y-98625000D02*
X95975000Y-102650000D01*
%TD*%
%TA.AperFunction,Conductor*%
%TO.N,GND*%
G36*
X110880039Y-94519685D02*
G01*
X110912200Y-94549600D01*
X111600200Y-95466933D01*
X111624676Y-95532375D01*
X111625000Y-95541333D01*
X111625000Y-98400000D01*
X112175000Y-98975000D01*
X114323638Y-98975000D01*
X114390677Y-98994685D01*
X114411319Y-99011319D01*
X114563681Y-99163681D01*
X114597166Y-99225004D01*
X114600000Y-99251362D01*
X114600000Y-100081503D01*
X114580315Y-100148542D01*
X114572828Y-100158965D01*
X114437230Y-100328462D01*
X114379979Y-100368514D01*
X114340402Y-100375000D01*
X110119894Y-100375000D01*
X110052855Y-100355315D01*
X110040511Y-100346259D01*
X109669617Y-100037180D01*
X109630718Y-99979141D01*
X109625000Y-99941921D01*
X109625000Y-97049999D01*
X109200000Y-96500000D01*
X109135944Y-96494875D01*
X109070688Y-96469906D01*
X109062870Y-96463427D01*
X109040079Y-96442910D01*
X109040065Y-96442897D01*
X109027525Y-96432206D01*
X109027524Y-96432205D01*
X109027519Y-96432201D01*
X108928690Y-96378951D01*
X108880172Y-96363441D01*
X108862137Y-96357676D01*
X108862135Y-96357675D01*
X108862130Y-96357674D01*
X108776387Y-96343256D01*
X108577411Y-96338518D01*
X108510859Y-96317243D01*
X108473485Y-96277426D01*
X108342120Y-96054104D01*
X108325000Y-95991234D01*
X108325000Y-94915593D01*
X108344685Y-94848554D01*
X108349006Y-94842264D01*
X108562841Y-94550671D01*
X108618359Y-94508251D01*
X108662835Y-94500000D01*
X110813000Y-94500000D01*
X110880039Y-94519685D01*
G37*
%TD.AperFunction*%
%TD*%
%TA.AperFunction,Conductor*%
%TO.N,+3.3V*%
G36*
X108769113Y-96648669D02*
G01*
X108835664Y-96669944D01*
X108861009Y-96692761D01*
X109195849Y-97090383D01*
X109223975Y-97154342D01*
X109225000Y-97170256D01*
X109225000Y-100325002D01*
X109697060Y-100869685D01*
X109875000Y-101075000D01*
X112049999Y-101075000D01*
X112050000Y-101075000D01*
X112447781Y-100864409D01*
X112505799Y-100850000D01*
X113676517Y-100850000D01*
X113743556Y-100869685D01*
X113760624Y-100882884D01*
X114010107Y-101113176D01*
X114046016Y-101173111D01*
X114050000Y-101204291D01*
X114050000Y-104575760D01*
X114030315Y-104642799D01*
X114016221Y-104660826D01*
X113260972Y-105461847D01*
X113200660Y-105497120D01*
X113172568Y-105500768D01*
X106450809Y-105599255D01*
X106383488Y-105580554D01*
X106363280Y-105564876D01*
X105863288Y-105086623D01*
X105828449Y-105026059D01*
X105825000Y-104997015D01*
X105825000Y-100238553D01*
X105844685Y-100171514D01*
X105876593Y-100137889D01*
X107250000Y-99150000D01*
X107250000Y-98748767D01*
X107255023Y-98713830D01*
X107263278Y-98685717D01*
X107268124Y-98669215D01*
X107280500Y-98583143D01*
X107280500Y-97042026D01*
X107300185Y-96974987D01*
X107332422Y-96941127D01*
X107606341Y-96745470D01*
X107656256Y-96724372D01*
X107716680Y-96713404D01*
X107782674Y-96690456D01*
X107859904Y-96650499D01*
X107859908Y-96650495D01*
X107863676Y-96648192D01*
X107864529Y-96649587D01*
X107923966Y-96628880D01*
X107933027Y-96628762D01*
X108769113Y-96648669D01*
G37*
%TD.AperFunction*%
%TD*%
%TA.AperFunction,Conductor*%
%TO.N,VBUS*%
G36*
X114483990Y-93166612D02*
G01*
X114495412Y-93173207D01*
X114597272Y-93200500D01*
X114674167Y-93200500D01*
X114741206Y-93220185D01*
X114761848Y-93236819D01*
X114802235Y-93277206D01*
X114905009Y-93322585D01*
X114930135Y-93325500D01*
X116319864Y-93325499D01*
X116323444Y-93325499D01*
X116323444Y-93326627D01*
X116386897Y-93341335D01*
X116435628Y-93391405D01*
X116450000Y-93449351D01*
X116450000Y-93569315D01*
X116430315Y-93636354D01*
X116408381Y-93661994D01*
X116260236Y-93793679D01*
X116197053Y-93823505D01*
X116177855Y-93825000D01*
X108475000Y-93825000D01*
X108000000Y-94574997D01*
X108000000Y-96111187D01*
X107980315Y-96178226D01*
X107948074Y-96212090D01*
X107682336Y-96401903D01*
X107616342Y-96424851D01*
X107610262Y-96425000D01*
X107249999Y-96425000D01*
X106975000Y-96699999D01*
X106975000Y-98583143D01*
X106955315Y-98650182D01*
X106949634Y-98658292D01*
X106612220Y-99101149D01*
X106555933Y-99142545D01*
X106513586Y-99150000D01*
X105468497Y-99150000D01*
X105401458Y-99130315D01*
X105391035Y-99122828D01*
X105097201Y-98887761D01*
X105057149Y-98830511D01*
X105050671Y-98789558D01*
X105074337Y-96659624D01*
X105094765Y-96592810D01*
X105121986Y-96563292D01*
X105875000Y-95975000D01*
X106069089Y-94713417D01*
X106098738Y-94650152D01*
X106101768Y-94646847D01*
X107488340Y-93188555D01*
X107548800Y-93153537D01*
X107578203Y-93150000D01*
X114421991Y-93150000D01*
X114483990Y-93166612D01*
G37*
%TD.AperFunction*%
%TD*%
M02*
