%TF.GenerationSoftware,KiCad,Pcbnew,8.0.3*%
%TF.CreationDate,2025-05-21T19:02:48+05:45*%
%TF.ProjectId,STM32_pcb_design,53544d33-325f-4706-9362-5f6465736967,rev?*%
%TF.SameCoordinates,Original*%
%TF.FileFunction,Legend,Bot*%
%TF.FilePolarity,Positive*%
%FSLAX46Y46*%
G04 Gerber Fmt 4.6, Leading zero omitted, Abs format (unit mm)*
G04 Created by KiCad (PCBNEW 8.0.3) date 2025-05-21 19:02:48*
%MOMM*%
%LPD*%
G01*
G04 APERTURE LIST*
%ADD10C,0.250000*%
G04 APERTURE END LIST*
D10*
X118542669Y-90596593D02*
X119137907Y-90596593D01*
X119137907Y-90596593D02*
X119197431Y-91191831D01*
X119197431Y-91191831D02*
X119137907Y-91132308D01*
X119137907Y-91132308D02*
X119018860Y-91072784D01*
X119018860Y-91072784D02*
X118721241Y-91072784D01*
X118721241Y-91072784D02*
X118602193Y-91132308D01*
X118602193Y-91132308D02*
X118542669Y-91191831D01*
X118542669Y-91191831D02*
X118483146Y-91310879D01*
X118483146Y-91310879D02*
X118483146Y-91608498D01*
X118483146Y-91608498D02*
X118542669Y-91727546D01*
X118542669Y-91727546D02*
X118602193Y-91787070D01*
X118602193Y-91787070D02*
X118721241Y-91846593D01*
X118721241Y-91846593D02*
X119018860Y-91846593D01*
X119018860Y-91846593D02*
X119137907Y-91787070D01*
X119137907Y-91787070D02*
X119197431Y-91727546D01*
X117054574Y-90537070D02*
X118126003Y-92144212D01*
X116697431Y-90715641D02*
X116637907Y-90656117D01*
X116637907Y-90656117D02*
X116518860Y-90596593D01*
X116518860Y-90596593D02*
X116221241Y-90596593D01*
X116221241Y-90596593D02*
X116102193Y-90656117D01*
X116102193Y-90656117D02*
X116042669Y-90715641D01*
X116042669Y-90715641D02*
X115983146Y-90834689D01*
X115983146Y-90834689D02*
X115983146Y-90953736D01*
X115983146Y-90953736D02*
X116042669Y-91132308D01*
X116042669Y-91132308D02*
X116756955Y-91846593D01*
X116756955Y-91846593D02*
X115983146Y-91846593D01*
X114852193Y-90596593D02*
X115447431Y-90596593D01*
X115447431Y-90596593D02*
X115506955Y-91191831D01*
X115506955Y-91191831D02*
X115447431Y-91132308D01*
X115447431Y-91132308D02*
X115328384Y-91072784D01*
X115328384Y-91072784D02*
X115030765Y-91072784D01*
X115030765Y-91072784D02*
X114911717Y-91132308D01*
X114911717Y-91132308D02*
X114852193Y-91191831D01*
X114852193Y-91191831D02*
X114792670Y-91310879D01*
X114792670Y-91310879D02*
X114792670Y-91608498D01*
X114792670Y-91608498D02*
X114852193Y-91727546D01*
X114852193Y-91727546D02*
X114911717Y-91787070D01*
X114911717Y-91787070D02*
X115030765Y-91846593D01*
X115030765Y-91846593D02*
X115328384Y-91846593D01*
X115328384Y-91846593D02*
X115447431Y-91787070D01*
X115447431Y-91787070D02*
X115506955Y-91727546D01*
X119256955Y-93025690D02*
X118959336Y-93859023D01*
X118959336Y-93859023D02*
X118661717Y-93025690D01*
X117947431Y-92609023D02*
X117828384Y-92609023D01*
X117828384Y-92609023D02*
X117709336Y-92668547D01*
X117709336Y-92668547D02*
X117649812Y-92728071D01*
X117649812Y-92728071D02*
X117590288Y-92847119D01*
X117590288Y-92847119D02*
X117530765Y-93085214D01*
X117530765Y-93085214D02*
X117530765Y-93382833D01*
X117530765Y-93382833D02*
X117590288Y-93620928D01*
X117590288Y-93620928D02*
X117649812Y-93739976D01*
X117649812Y-93739976D02*
X117709336Y-93799500D01*
X117709336Y-93799500D02*
X117828384Y-93859023D01*
X117828384Y-93859023D02*
X117947431Y-93859023D01*
X117947431Y-93859023D02*
X118066479Y-93799500D01*
X118066479Y-93799500D02*
X118126003Y-93739976D01*
X118126003Y-93739976D02*
X118185526Y-93620928D01*
X118185526Y-93620928D02*
X118245050Y-93382833D01*
X118245050Y-93382833D02*
X118245050Y-93085214D01*
X118245050Y-93085214D02*
X118185526Y-92847119D01*
X118185526Y-92847119D02*
X118126003Y-92728071D01*
X118126003Y-92728071D02*
X118066479Y-92668547D01*
X118066479Y-92668547D02*
X117947431Y-92609023D01*
X116995050Y-93739976D02*
X116935527Y-93799500D01*
X116935527Y-93799500D02*
X116995050Y-93859023D01*
X116995050Y-93859023D02*
X117054574Y-93799500D01*
X117054574Y-93799500D02*
X116995050Y-93739976D01*
X116995050Y-93739976D02*
X116995050Y-93859023D01*
X115745051Y-93859023D02*
X116459336Y-93859023D01*
X116102193Y-93859023D02*
X116102193Y-92609023D01*
X116102193Y-92609023D02*
X116221241Y-92787595D01*
X116221241Y-92787595D02*
X116340289Y-92906642D01*
X116340289Y-92906642D02*
X116459336Y-92966166D01*
M02*
